<?xml version="1.0" encoding="iso-8859-1"?>
<!-- Uploaded to: SVG Repo, www.svgrepo.com, Generator: SVG Repo Mixer Tools -->
<svg fill="#000000" height="800px" width="800px" version="1.1" id="Layer_1" xmlns="http://www.w3.org/2000/svg" xmlns:xlink="http://www.w3.org/1999/xlink" 
	 viewBox="0 0 512 512" xml:space="preserve">
<g transform="translate(0 -1)">
	<g>
		<path d="M503.467,171.666c4.713,0,8.533-3.82,8.533-8.533v-51.2c0-4.713-3.82-8.533-8.533-8.533H8.533
			c-4.713,0-8.533,3.82-8.533,8.533v51.2c0,4.713,3.82,8.533,8.533,8.533H51.2v42.668H34.133c-4.713,0-8.533,3.82-8.533,8.533
			s3.821,8.533,8.533,8.533H51.2v162.133H8.533c-4.713,0-8.533,3.82-8.533,8.533s3.82,8.533,8.533,8.533h153.6h51.2h85.333h51.2
			h153.6c4.713,0,8.533-3.82,8.533-8.533s-3.82-8.533-8.533-8.533h-8.533V265.532h8.533c4.713,0,8.533-3.82,8.533-8.533v-34.133
			c0-4.713-3.82-8.533-8.533-8.533H460.8v-42.667H503.467z M17.067,120.466h477.867v34.133h-42.667H384H128H59.733H17.067V120.466z
			 M375.467,248.466h-128h-8.533v-17.067h136.533V248.466z M256,265.532h119.467v128H358.4v-65.005
			c0-11.224-9.103-20.326-20.326-20.326H310.46c-11.224,0-20.326,9.103-20.326,20.326v65.005H256V265.532z M341.333,393.533H307.2
			v-65.005c0-1.798,1.462-3.26,3.26-3.26h27.614c1.798,0,3.26,1.462,3.26,3.26V393.533z M119.467,171.666v221.867h-51.2V171.666
			H119.467z M136.533,231.401H153.6c4.713,0,8.533-3.82,8.533-8.533s-3.821-8.533-8.533-8.533h-17.067v-42.668h238.933v42.667H230.4
			c-4.713,0-8.533,3.82-8.533,8.533v34.133c0,4.713,3.82,8.533,8.533,8.533h8.533v128.002h-17.067v-65.007
			c0-11.224-9.103-20.326-20.326-20.326h-27.614c-11.224,0-20.326,9.103-20.326,20.326v65.007h-17.067V231.401z M170.667,393.534
			v-65.007c0-1.798,1.462-3.26,3.26-3.26h27.614c1.798,0,3.26,1.462,3.26,3.26v65.007H170.667z M477.867,393.533H460.8v-128h17.067
			V393.533z M494.933,231.399v17.067H486.4h-25.6v-17.067H494.933z M443.733,222.866v34.133v136.533h-51.2V256.999v-34.133v-51.2
			h51.2V222.866z"/>
	</g>
</g>
</svg>