<?xml version="1.0" encoding="utf-8"?>
<svg viewBox="502.7159 191.8852 84.4901 90.0207" xmlns="http://www.w3.org/2000/svg">
  <path class="cls-1" d="M 573.428 203.711 C 573.306 204.622 572.243 205.059 571.515 204.497 C 571.177 204.237 571.004 203.816 571.061 203.393 C 571.624 199.26 576.45 197.285 579.748 199.839 C 583.047 202.393 582.343 207.56 578.482 209.14 C 577.831 209.406 577.134 209.543 576.43 209.543 L 554.249 209.543 C 553.325 209.543 552.748 208.543 553.21 207.743 C 553.424 207.372 553.82 207.143 554.249 207.143 L 576.428 207.143 C 578.758 207.142 580.214 204.62 579.048 202.602 C 577.883 200.584 574.97 200.585 573.806 202.603 C 573.609 202.943 573.481 203.318 573.428 203.707 L 573.428 203.711 Z M 504.617 222.108 C 505.539 222.168 506.051 223.203 505.538 223.971 C 505.331 224.282 504.99 224.479 504.617 224.503 L 503.84 224.503 C 502.918 224.443 502.407 223.408 502.919 222.64 C 503.127 222.329 503.467 222.132 503.84 222.108 L 504.617 222.108 Z M 517.178 222.108 C 518.1 222.168 518.612 223.203 518.099 223.971 C 517.892 224.282 517.551 224.479 517.178 224.503 L 509.494 224.503 C 508.572 224.563 507.932 223.602 508.341 222.774 C 508.556 222.339 509.011 222.077 509.494 222.108 L 517.178 222.108 Z M 554.758 218.671 C 554.636 219.582 553.573 220.019 552.845 219.457 C 552.507 219.197 552.334 218.776 552.391 218.353 C 552.954 214.22 557.78 212.245 561.078 214.799 C 564.377 217.353 563.673 222.52 559.812 224.1 C 559.161 224.366 558.464 224.503 557.76 224.503 L 521.768 224.503 C 520.846 224.563 520.206 223.602 520.615 222.774 C 520.83 222.339 521.285 222.077 521.768 222.108 L 557.76 222.108 C 560.09 222.107 561.546 219.584 560.38 217.567 C 559.215 215.549 556.302 215.55 555.137 217.568 C 554.941 217.908 554.813 218.282 554.76 218.671 L 554.758 218.671 Z M 515.192 231.319 C 516.114 231.379 516.626 232.414 516.113 233.182 C 515.906 233.493 515.565 233.69 515.192 233.714 L 514.734 233.714 C 513.812 233.654 513.301 232.619 513.813 231.851 C 514.021 231.54 514.361 231.343 514.734 231.319 L 515.192 231.319 Z M 526.602 231.319 C 527.524 231.259 528.165 232.22 527.755 233.048 C 527.541 233.483 527.086 233.745 526.602 233.714 L 520.375 233.714 C 519.453 233.774 518.813 232.813 519.222 231.985 C 519.437 231.55 519.892 231.288 520.375 231.319 L 526.602 231.319 Z M 572.542 227.882 C 572.856 225.572 575.554 224.467 577.398 225.895 C 579.241 227.322 578.849 230.21 576.691 231.093 C 576.326 231.242 575.936 231.319 575.542 231.319 L 532.342 231.319 C 531.42 231.259 530.78 232.22 531.189 233.048 C 531.404 233.483 531.859 233.745 532.342 233.714 L 575.542 233.714 C 579.714 233.714 582.321 229.199 580.236 225.586 C 578.15 221.973 572.936 221.973 570.85 225.585 C 570.498 226.194 570.268 226.867 570.173 227.564 C 570.051 228.475 570.961 229.177 571.811 228.827 C 572.205 228.665 572.483 228.305 572.54 227.882 L 572.542 227.882 Z M 550.982 272.91 C 548.879 270.807 545.287 271.77 544.518 274.643 C 543.748 277.516 546.378 280.145 549.251 279.375 C 550.94 278.922 552.114 277.391 552.114 275.642 C 552.115 274.617 551.708 273.634 550.982 272.91 Z M 579.265 259.11 L 571.053 263.851 C 573.645 267.876 575.117 272.519 575.319 277.302 L 584.803 277.302 C 584.602 270.857 582.691 264.581 579.265 259.118 L 579.265 259.11 Z M 549.447 241.946 L 549.447 251.425 C 552.91 251.573 556.312 252.388 559.467 253.825 L 564.221 245.592 C 559.608 243.35 554.574 242.108 549.447 241.948 L 549.447 241.946 Z M 532.279 245.59 L 537.033 253.824 C 540.187 252.387 543.589 251.572 547.052 251.424 L 547.052 241.947 C 541.926 242.107 536.892 243.348 532.279 245.59 Z M 518.569 257.129 C 521.643 252.864 525.597 249.308 530.164 246.702 L 534.901 254.902 C 531.774 256.678 529.03 259.058 526.828 261.902 L 518.567 257.132 L 518.569 257.129 Z M 525.447 263.854 L 517.235 259.113 C 513.809 264.578 511.897 270.855 511.697 277.302 L 521.18 277.302 C 521.384 272.522 522.856 267.882 525.447 263.859 L 525.447 263.854 Z M 554.02 273.212 C 553.321 271.554 551.944 270.276 550.239 269.702 L 562.439 261.029 L 554.02 273.212 Z M 564.38 256.722 C 563.491 256.062 562.562 255.458 561.599 254.911 L 566.336 246.711 C 570.9 249.315 574.853 252.868 577.928 257.129 L 569.669 261.902 C 568.97 261.001 568.216 260.144 567.409 259.338 C 567.233 259.163 567.055 258.989 566.875 258.818 L 568.245 256.836 C 568.791 256.096 568.331 255.042 567.417 254.939 C 567.125 254.907 566.832 254.982 566.592 255.152 L 564.38 256.722 L 564.38 256.722 Z M 545.965 269.813 L 562.316 258.189 C 546.687 247.36 525.196 257.511 523.633 276.461 C 523.577 277.138 523.549 277.816 523.549 278.495 C 523.549 279.158 523.012 279.695 522.349 279.695 L 510.484 279.695 C 509.821 279.695 509.284 279.158 509.284 278.495 C 509.284 278.457 509.286 278.419 509.29 278.381 C 509.29 248.391 541.755 229.647 567.727 244.642 C 579.781 251.602 587.206 264.463 587.206 278.381 C 587.206 278.419 587.206 278.457 587.206 278.495 C 587.206 279.158 586.669 279.695 586.006 279.695 L 574.148 279.695 C 573.485 279.695 572.948 279.158 572.948 278.495 C 572.956 271.942 570.353 265.657 565.714 261.029 L 565.493 260.811 L 554.387 276.881 C 553.432 281.604 547.722 283.523 544.109 280.334 C 540.599 277.236 541.607 271.523 545.965 269.813 L 545.965 269.813 Z M 515.101 201.54 C 513.364 201.76 511.742 202.527 510.469 203.73 C 508.938 205.199 508.084 207.236 508.108 209.358 C 508.118 213.717 511.649 217.248 516.008 217.258 L 542.06 217.258 C 548.142 217.258 551.942 210.675 548.902 205.408 C 547.491 202.964 544.883 201.458 542.06 201.458 L 541.22 201.458 C 540.467 198.778 538.023 196.926 535.239 196.924 C 534.883 196.925 534.527 196.955 534.176 197.016 L 534.17 197.016 C 533.355 195.607 532.217 194.412 530.849 193.529 C 524.266 189.287 515.552 193.717 515.101 201.536 L 515.101 201.54 Z M 517.479 202.362 C 517.479 202.391 517.479 202.44 517.485 202.506 C 517.492 202.556 517.495 202.607 517.495 202.658 C 517.495 203.321 516.958 203.858 516.295 203.858 C 514.75 203.833 513.256 204.406 512.124 205.458 C 511.066 206.48 510.479 207.894 510.501 209.364 C 510.513 212.397 512.968 214.852 516.001 214.864 L 542.06 214.864 C 546.294 214.864 548.94 210.281 546.823 206.614 C 545.841 204.912 544.025 203.864 542.06 203.864 L 540.234 203.864 C 539.619 203.861 539.106 203.395 539.045 202.783 C 538.854 200.825 537.207 199.331 535.239 199.333 C 534.823 199.333 534.409 199.401 534.014 199.533 C 533.415 199.786 532.724 199.516 532.455 198.924 C 529.973 193.427 522.472 192.678 518.952 197.575 C 517.995 198.907 517.48 200.505 517.479 202.145 L 517.479 202.362 Z" style="fill-rule: evenodd;" transform="matrix(1, 0, 0, 1, 0, 8.881784197001252e-16)"/>
</svg>