<svg height="960" viewBox="0 0 960 960" width="960" xmlns="http://www.w3.org/2000/svg"><g transform="translate(0 135)"><path d="m891.201463 429.027086c11.011586-2.592824 17.838466-13.6201 15.250623-24.633922-17.48153-74.276668-71.571871-135.770032-142.531158-162.991705-35.292211-140.57063-163.715628-241.401459-309.721149-241.401459-146.837539 0-275.489533 101.589781-310.132587 243.230258-87.0713171 35.587088-143.99502494 120.282271-144.067192 214.353523 0 124.879536 97.0992945 225.975541 221.499765 231.196762 1.002126.146481 2.013581.219457 3.026353.219457h35.475072c11.313567 0 20.485025-9.172397 20.485025-20.487121s-9.171458-20.487121-20.485025-20.487121h-33.225879c-.530298-.054863-1.060595-.091439-1.600036-.109727-103.316575-3.310127-184.2052243-86.91367-184.2052243-190.33225.0535287-80.884497 51.1221486-152.936143 127.4176803-179.770935 6.796972-2.367434 11.851486-8.130725 13.312295-15.179031 26.514874-128.436549 141.177986-221.6595749 272.536325-221.6595749 130.67261 0 245.162004 92.6195219 272.271177 220.2513999 1.52215 7.161596 6.750821 12.966014 13.714589 15.224751 62.849393 20.455116 111.289323 73.078805 126.402801 137.333656 2.597521 10.982389 13.585039 17.797146 24.576545 15.243039z"/><path d="m412.60605 483.922717c-7.895903-1.972834-22.038912-2.922717-43.216786-2.922717h-35.348364c-4.993151 0-9.0409 4.036043-9.0409 9.014754v176.970492c0 4.978711 4.047749 9.014754 9.0409 9.014754h17.733722c4.993151 0 9.0409-4.036043 9.0409-9.014754v-73.277986h3.663992c22.899951 0 38.398637-1.022951 47.247178-3.132787 12.933892-3.105386 23.302989-9.34356 30.823333-18.53185s11.449975-21.007026 11.449975-34.871663-3.947951-25.57377-11.743095-34.935597c-7.605087-9.177874-18.022339-15.611667-29.650855-18.312646zm-30.676774 74.803278-21.113754-.255737v-42.123654h22.332032c13.410211 0 19.675637 1.351757 22.561031 2.493443 3.51128 1.384702 6.484369 3.856177 8.482141 7.051054 2.229818 3.362005 3.397603 7.313356 3.352553 11.343794.068042 4.107706-1.099675 8.141539-3.352553 11.581264-2.149194 3.313815-5.313535 5.847577-9.02258 7.22459-3.105233 1.223888-9.691259 2.676113-23.23887 2.685246z"/><path d="m646.453201 481h-2.834598c-3.44205 0-6.584449 1.95529-8.101462 5.041217l-63.275534 128.770133-63.897317-128.824929c-1.526563-3.052835-4.648293-4.982961-8.064887-4.986421h-2.871173c-4.49123-.003849-8.300411 3.294425-8.933555 7.735344l-25.383364 176.935642c-.371193 2.587266.400292 5.208065 2.114451 7.182973 1.71416 1.974908 4.202196 3.10945 6.819103 3.109505h17.099024c4.514394.000009 8.334376-3.331544 8.942699-7.79927l13.441479-98.458921 50.327823 101.253507c1.524386 3.065821 4.655912 5.004699 8.083175 5.004684h4.526213c3.431354-.003425 6.563924-1.950028 8.083175-5.022949l49.642034-100.276316 13.496342 97.554791c.616164 4.457036 4.428702 7.777704 8.933554 7.78101h17.37334c2.617939.003001 5.107912-1.130666 6.822749-3.106354 1.714836-1.975688 2.485178-4.598278 2.110806-7.18613l-25.520523-176.99957c-.649185-4.42802-4.452812-7.707946-8.933554-7.707946z"/><path d="m765.047722 481h-34.565236c-3.120628 0-6.016555 1.633158-7.644846 4.311411l-10.532092 17.355256c-1.682153 2.781652-1.74277 6.259683-.158581 9.098955 1.584189 2.839271 4.56701 4.598578 7.803427 4.602562h18.667225v150.616217c0 4.979178 4.012136 9.015599 8.961357 9.015599h17.459667c4.949221 0 8.961357-4.036421 8.961357-9.015599v-176.996205c-.014998-4.96491-4.017219-8.983189-8.952278-8.988196z"/><path d="m950.203302 521.326759c-6.053415-14.785021-14.53917-26.134216-25.228661-33.718621-10.603203-7.62705-23.356907-11.690835-36.42108-11.606622-12.931167-.091481-25.551718 3.959817-36.009593 11.560932-10.543185 7.584406-18.745472 18.696017-24.387402 33.033284-5.486479 13.953479-8.156566 32.740873-8.156566 57.467862 0 24.571646 2.74324 43.349903 8.27544 57.413036 5.724227 14.465197 13.935658 25.585946 24.396545 33.078973 10.425443 7.535363 22.987944 11.543887 35.854144 11.442521 13.130981.076496 25.944509-4.033815 36.57653-11.734932 10.762644-7.666646 19.257543-19.015841 25.228661-33.746035 5.833957-14.373819 8.668659-32.841389 8.668659-56.4627.009123-23.383727-2.953576-42.472671-8.796677-56.727698zm-44.449628 118.700514c-10.479175 7.949919-22.39398 8.096124-33.30293-.173619-5.48648-4.18513-9.820798-10.618168-12.801786-19.107219-3.227878-9.238354-4.864678-23.493381-4.864678-42.381292s1.655088-33.252592 4.910399-42.47267c2.999276-8.498189 7.315306-14.922089 12.737777-19.079806 5.42247-4.157716 10.79922-6.049248 16.697186-6.049248 5.742515 0 11.146697 1.982911 16.523447 6.058386 5.37675 4.075476 9.921384 11.102473 13.249848 20.706341 3.5845 10.344032 5.404182 24.078203 5.404182 40.827859 0 16.749657-2.05743 30.958995-6.144857 42.628014-2.89869 8.589567-7.095847 14.995192-12.408588 19.043254z"/><path d="m455.5 317c11.321837 0 20.5-9.178163 20.5-20.5s-9.178163-20.5-20.5-20.5-20.5 9.178163-20.5 20.5c.014971 11.31563 9.18437 20.485029 20.5 20.5z"/><path d="m476 411.5c0-11.321837-9.178163-20.5-20.5-20.5s-20.5 9.178163-20.5 20.5 9.178163 20.5 20.5 20.5c11.317697-.009989 20.490011-9.182303 20.5-20.5z"/><path d="m455.5 201c11.321837 0 20.5-9.178163 20.5-20.5s-9.178163-20.5-20.5-20.5-20.5 9.178163-20.5 20.5c.014971 11.31563 9.18437 20.485029 20.5 20.5z"/><path d="m365.5 374c11.321837 0 20.5-9.178163 20.5-20.5s-9.178163-20.5-20.5-20.5-20.5 9.178163-20.5 20.5c.009989 11.317697 9.182303 20.490011 20.5 20.5z"/><path d="m365.4997 259c8.291355 0 15.76629-4.994592 18.939254-12.654805s1.419097-16.477499-4.443776-22.340373c-5.862874-5.862873-14.68016-7.61674-22.340373-4.443776s-12.654805 10.647899-12.654805 18.939254c.009989 11.317531 9.182169 20.489711 20.4997 20.4997z"/><path d="m275.5 276c-11.321837 0-20.5 9.178163-20.5 20.5s9.178163 20.5 20.5 20.5 20.5-9.178163 20.5-20.5c-.014971-11.31563-9.18437-20.485029-20.5-20.5z"/><path d="m545.5 374c11.321837 0 20.5-9.178163 20.5-20.5s-9.178163-20.5-20.5-20.5-20.5 9.178163-20.5 20.5c.009989 11.317697 9.182303 20.490011 20.5 20.5z"/><path d="m545.4997 259c8.291355 0 15.76629-4.994592 18.939254-12.654805s1.419097-16.477499-4.443776-22.340373c-5.862874-5.862873-14.68016-7.61674-22.340373-4.443776s-12.654805 10.647899-12.654805 18.939254c.014971 11.315465 9.184235 20.484729 20.4997 20.4997z"/><path d="m656 296.5c0-11.321837-9.178163-20.5-20.5-20.5s-20.5 9.178163-20.5 20.5 9.178163 20.5 20.5 20.5c11.31563-.014971 20.485029-9.18437 20.5-20.5z"/></g></svg>