<svg id="Component_8_1" data-name="Component 8 – 1" xmlns="http://www.w3.org/2000/svg" width="180" height="180" viewBox="0 0 180 180">
  <g id="Component_7_1" data-name="Component 7 – 1" transform="translate(40 34)">
    <path id="Polygon_15" data-name="Polygon 15" d="M19.16,1.3a1,1,0,0,1,1.681,0L39.005,29.458A1,1,0,0,1,38.165,31H1.835a1,1,0,0,1-.84-1.542Z" transform="translate(30)" fill="#e35e54"/>
    <path id="Polygon_16" data-name="Polygon 16" d="M34.337.587a1,1,0,0,1,1.326,0L68.026,29.251A1,1,0,0,1,67.363,31H2.637a1,1,0,0,1-.663-1.749Z" transform="translate(15 33)" fill="#e35e54"/>
    <path id="Polygon_17" data-name="Polygon 17" d="M49.473.327a1,1,0,0,1,1.054,0L97.016,29.15A1,1,0,0,1,96.489,31H3.511a1,1,0,0,1-.527-1.85Z" transform="translate(0 66)" fill="#e35e54"/>
    <rect id="Rectangle_952" data-name="Rectangle 952" width="8" height="14" rx="1" transform="translate(46 99)" fill="#e35e54"/>
  </g>
</svg>
