<?xml version="1.0" standalone="no"?>
<!DOCTYPE svg PUBLIC "-//W3C//DTD SVG 20010904//EN"
 "http://www.w3.org/TR/2001/REC-SVG-20010904/DTD/svg10.dtd">
<svg version="1.0" xmlns="http://www.w3.org/2000/svg"
 width="360.000000pt" height="360.000000pt" viewBox="0 0 360.000000 360.000000"
 preserveAspectRatio="xMidYMid meet">

<g transform="translate(0.000000,360.000000) scale(0.100000,-0.100000)"
fill="#000000" stroke="none">
<path d="M3298 2077 l-58 -10 0 -55 c0 -48 -2 -53 -17 -47 -73 30 -148 24
-204 -15 -67 -49 -90 -177 -46 -261 43 -81 150 -114 225 -69 39 24 42 24 42 5
0 -12 14 -15 65 -15 l65 0 0 240 c0 132 -3 239 -7 239 -5 -1 -34 -6 -65 -12z
m-78 -227 c47 -47 12 -134 -53 -134 -50 0 -77 27 -77 76 0 49 28 78 75 78 22
0 43 -8 55 -20z"/>
<path d="M1520 1835 l0 -225 65 0 65 0 0 130 0 130 35 0 c32 0 37 4 60 50 14
27 25 51 25 52 0 2 -26 3 -57 3 l-58 0 -3 43 -3 42 -65 0 -64 0 0 -225z"/>
<path d="M436 1980 c-15 -5 -36 -16 -46 -25 -17 -15 -18 -15 -22 0 -2 14 -15
17 -66 17 l-63 0 0 -232 0 -232 63 0 63 0 0 61 c0 34 1 61 1 61 1 0 18 -7 37
-15 144 -60 287 74 248 231 -16 64 -46 103 -95 125 -44 20 -75 22 -120 9z m63
-136 c12 -15 21 -35 21 -45 0 -57 -53 -99 -103 -80 -84 32 -65 151 24 151 29
0 42 -6 58 -26z"/>
<path d="M845 1981 c-78 -20 -139 -75 -151 -137 -10 -56 1 -129 25 -163 48
-68 162 -97 264 -67 163 47 188 269 38 345 -42 22 -133 33 -176 22z m112 -133
c39 -36 30 -99 -18 -124 -55 -28 -113 9 -113 73 0 66 81 98 131 51z"/>
<path d="M1269 1980 c-62 -11 -86 -25 -109 -63 -47 -77 -1 -146 109 -165 71
-13 92 -25 74 -43 -12 -12 -117 -8 -159 6 -19 6 -22 2 -28 -30 -4 -20 -9 -42
-12 -50 -8 -20 97 -39 178 -32 110 9 163 51 163 130 0 56 -42 91 -126 106 -66
11 -86 22 -75 40 9 13 89 14 133 2 30 -9 31 -8 38 26 3 19 8 40 11 48 3 7 -3
16 -13 18 -38 11 -140 15 -184 7z"/>
<path d="M1965 1971 c-46 -25 -45 -24 -45 -8 0 9 -18 11 -65 9 l-65 -4 0 -179
0 -179 64 0 64 0 4 116 c3 102 5 117 23 130 29 21 67 14 82 -16 8 -15 13 -65
13 -127 l0 -103 65 0 65 0 0 135 c0 189 -19 228 -121 241 -33 4 -54 0 -84 -15z"/>
<path d="M2370 1981 c-114 -24 -169 -101 -158 -220 10 -100 83 -155 208 -156
57 0 85 5 114 21 140 73 143 264 7 333 -43 22 -122 32 -171 22z m107 -133 c50
-47 17 -132 -51 -132 -54 0 -81 34 -77 97 3 52 85 75 128 35z"/>
<path d="M2680 1793 l0 -183 65 0 65 0 0 105 c0 126 11 145 85 145 l45 0 0 60
0 60 -32 0 c-18 0 -48 -9 -65 -20 -30 -18 -33 -18 -33 -2 0 14 -10 17 -65 17
l-65 0 0 -182z"/>
</g>
</svg>
