<?xml version="1.0" standalone="no"?>
<!DOCTYPE svg PUBLIC "-//W3C//DTD SVG 20010904//EN"
 "http://www.w3.org/TR/2001/REC-SVG-20010904/DTD/svg10.dtd">
<svg version="1.0" xmlns="http://www.w3.org/2000/svg"
 width="1501.000000pt" height="1500.000000pt" viewBox="0 0 1501.000000 1500.000000"
 preserveAspectRatio="xMidYMid meet">

<g transform="translate(0.000000,1500.000000) scale(0.100000,-0.100000)"
fill="#000000" stroke="none">
<path d="M1895 10180 c-317 -5 -342 -6 -374 -25 -53 -31 -93 -87 -98 -139 -7
-58 9 -60 24 -3 13 45 62 103 103 119 16 6 490 9 1303 9 1397 -1 1312 3 1355
-58 11 -16 25 -47 31 -71 16 -57 35 -55 28 4 -6 58 -47 111 -111 143 l-48 24
-937 1 c-515 1 -1089 -1 -1276 -4z"/>
<path d="M7963 10180 l-241 -5 -44 -30 c-50 -36 -88 -96 -88 -143 0 -42 16
-33 24 13 8 43 54 97 102 120 33 16 89 16 737 10 787 -7 2327 -7 3137 -1 503
4 537 3 577 -14 48 -21 78 -63 88 -122 4 -22 11 -35 17 -32 13 8 3 76 -17 114
-20 39 -62 67 -121 81 -36 9 -549 12 -1989 13 -1067 0 -2049 -1 -2182 -4z"/>
<path d="M3699 9916 c-2 -2 -637 -6 -1410 -9 -1487 -5 -1429 -3 -1459 -51 -18
-28 -27 -295 -12 -322 9 -14 11 17 12 129 0 157 10 199 49 212 10 3 117 6 237
5 121 0 2948 -1 6284 -3 3336 -2 6081 -7 6100 -11 122 -27 250 -182 250 -303
l0 -36 -64 6 c-53 5 -66 3 -80 -12 -9 -10 -13 -20 -10 -24 3 -3 5 -561 5
-1240 -1 -1217 0 -1235 19 -1260 11 -14 44 -38 73 -55 l53 -30 2 -332 c1 -183
3 -335 6 -337 21 -22 25 41 26 440 5 1828 1 2809 -12 2892 -24 160 -120 271
-274 316 -58 17 -94 20 -229 19 -88 -1 -2276 0 -4861 3 -2586 3 -4703 4 -4705
3z m10011 -1528 c0 -19 -2 -20 -10 -8 -13 19 -13 30 0 30 6 0 10 -10 10 -22z"/>
<path d="M2579 9545 c-3 -2 -335 -5 -739 -6 -403 -1 -745 -5 -759 -9 -70 -19
1047 -24 5849 -24 4029 -1 6299 5 6307 17 4 7 -6 8 -107 13 -99 5 -10547 14
-10551 9z"/>
<path d="M13972 9542 c-108 -2 -142 -6 -139 -15 2 -8 43 -13 135 -15 l132 -3
1 -152 c1 -84 2 -345 3 -582 l1 -430 115 3 c89 3 118 7 127 19 9 12 12 157 12
584 0 527 -1 569 -17 578 -21 11 -182 17 -370 13z"/>
<path d="M13445 9530 c-9 -14 -13 -401 -20 -1673 -5 -1074 -7 -1030 50 -1075
29 -23 66 -27 149 -16 29 4 46 12 46 20 0 10 -16 14 -60 14 -64 0 -113 18
-129 48 -8 15 -11 520 -13 2290 0 216 -4 395 -9 397 -4 3 -11 0 -14 -5z"/>
<path d="M810 8268 c0 -557 -2 -1191 -4 -1408 -3 -217 -6 -613 -7 -879 -1
-435 0 -486 15 -496 8 -7 51 -15 93 -18 43 -3 98 -13 122 -22 24 -8 56 -15 70
-15 15 0 95 -15 177 -34 82 -19 174 -40 204 -46 30 -7 73 -16 95 -22 92 -23
1005 -17 1005 7 0 17 -136 23 -520 24 -385 2 -425 5 -645 56 -55 12 -149 32
-210 44 -60 12 -139 29 -175 37 -36 8 -94 18 -130 22 -50 6 -64 11 -60 22 5
17 1 1229 -6 1835 -3 220 -5 407 -4 415 1 14 1 1420 0 1468 0 12 -4 22 -10 22
-6 0 -9 -365 -10 -1012z"/>
<path d="M6700 9247 c-3 -3 -89 -7 -190 -9 -114 -2 -184 -7 -183 -13 4 -19
106 -22 833 -24 707 -1 970 4 970 19 0 4 -33 10 -72 14 -92 8 -1351 20 -1358
13z"/>
<path d="M11108 9169 c-13 -8 -14 -2027 -1 -2040 10 -10 2048 -14 2064 -4 5 4
9 408 9 1026 0 808 -3 1019 -12 1020 -90 4 -2053 2 -2060 -2z m149 -917 c1
-75 5 -152 8 -169 7 -40 -11 -44 -20 -5 -8 37 -23 295 -18 305 2 4 10 7 16 7
9 0 13 -39 14 -138z m1831 -32 c-13 -126 -14 -165 -6 -228 5 -40 4 -52 -5 -49
-7 2 -12 26 -12 63 -1 32 -6 69 -13 81 -16 29 -15 65 3 89 8 10 15 38 15 62 0
38 16 89 25 80 2 -2 -1 -46 -7 -98z m-1759 -1012 c2 -19 -26 -5 -50 25 -45 57
-44 63 3 22 25 -22 47 -43 47 -47z"/>
<path d="M3525 9117 c-3 -28 -5 -491 -3 -1027 l3 -975 1029 -3 c567 -1 1033 1
1038 6 4 4 9 464 10 1022 l3 1015 -60 7 c-33 3 -500 7 -1037 7 l-977 1 -6 -53z
m1366 -519 c45 -29 61 -48 40 -48 -9 0 -101 68 -101 75 0 10 14 4 61 -27z
m599 -1316 c0 -15 -2 -15 -10 -2 -13 20 -13 33 0 25 6 -3 10 -14 10 -23z
m-1522 -67 c-24 -24 -311 -25 -342 -2 -15 11 13 13 169 14 152 0 184 -2 173
-12z"/>
<path d="M1349 9152 l-167 -2 -5 -353 c-9 -523 -6 -1686 3 -1692 12 -7 2058
-8 2069 -1 10 6 10 2030 0 2040 -6 6 -1615 13 -1900 8z m1806 -161 c-3 -6 -11
-11 -17 -11 -6 0 -6 6 2 15 14 17 26 13 15 -4z m5 -202 c-6 -11 -19 -19 -27
-17 -17 3 -20 23 -4 23 5 0 13 3 17 8 15 15 24 6 14 -14z m-855 -390 c35 -20
44 -29 29 -29 -12 0 -32 8 -45 19 -13 10 -43 28 -66 40 -24 12 -50 34 -60 49
-9 15 -31 41 -50 59 -18 18 -33 37 -33 43 0 7 39 -25 88 -70 48 -45 110 -95
137 -111z"/>
<path d="M8757 9153 c-4 -3 -7 -462 -7 -1020 0 -956 1 -1014 18 -1021 20 -8
2049 -8 2057 0 8 8 9 2024 1 2037 -8 12 -2057 16 -2069 4z m913 -122 c0 -5 -7
-12 -16 -15 -22 -9 -24 -8 -24 9 0 8 9 15 20 15 11 0 20 -4 20 -9z m110 -1
c10 -7 1 -8 -30 -4 -56 8 -64 14 -19 14 19 0 41 -5 49 -10z m80 -10 c0 -13
-30 -13 -50 0 -11 7 -7 10 18 10 17 0 32 -4 32 -10z m826 -1686 c-13 -73 -26
-103 -49 -123 -12 -9 -16 -8 -21 5 -4 10 5 29 23 50 17 18 33 51 36 71 9 51
16 75 21 71 2 -3 -2 -36 -10 -74z"/>
<path d="M5993 9028 c-18 -30 -25 -2505 -9 -3334 l7 -331 -513 -7 c-661 -10
-932 -18 -858 -28 110 -15 4842 -14 5828 1 34 1 62 5 62 11 0 7 -45 9 -122 8
-182 -4 -1717 11 -1833 18 l-100 6 3 311 c6 694 6 2626 0 2977 -4 218 -10 376
-16 378 -21 7 -26 -91 -28 -503 -1 -236 -3 -745 -5 -1130 -1 -385 0 -1002 4
-1371 l7 -670 -1199 -1 -1198 -2 3 602 c2 551 3 1917 1 2012 0 22 1 65 2 95 2
30 1 161 -1 290 -3 129 -5 335 -6 458 -2 208 -7 244 -29 210z"/>
<path d="M7214 8664 c-4 -22 -8 -614 -8 -1316 -1 -1247 1 -1333 28 -1290 3 6
8 99 11 209 8 310 10 1943 2 2192 -6 218 -17 287 -33 205z"/>
<path d="M13622 6459 c-32 -12 -35 -44 -26 -236 14 -272 44 -228 44 64 0 90 3
125 13 127 6 3 25 7 40 11 16 3 27 11 24 18 -5 15 -68 26 -95 16z"/>
<path d="M3380 6309 c-120 -10 -153 -19 -230 -62 -83 -45 -210 -129 -210 -137
0 -4 -25 -36 -56 -70 -58 -65 -134 -205 -134 -247 0 -13 -7 -38 -16 -56 -14
-26 -16 -53 -11 -162 10 -248 82 -405 255 -559 81 -71 153 -115 212 -127 24
-4 5 -7 -62 -8 l-98 -1 0 -40 0 -40 440 0 440 0 0 40 0 40 -92 1 -93 0 60 29
c55 27 195 133 195 148 0 4 25 34 55 67 30 33 55 65 55 70 0 6 12 27 26 48 39
59 61 135 74 259 10 98 10 127 -5 202 -32 175 -93 285 -224 412 -74 71 -205
141 -334 180 -86 26 -87 26 -247 13z m250 -60 c154 -47 307 -146 371 -242 16
-23 42 -59 58 -79 33 -44 78 -175 90 -268 13 -95 -10 -272 -45 -343 -81 -169
-219 -313 -361 -377 -110 -50 -192 -62 -340 -49 -76 6 -137 16 -150 25 -12 8
-32 14 -43 14 -33 0 -132 55 -170 95 -19 20 -49 45 -66 56 -31 19 -102 116
-142 194 -56 111 -91 379 -58 444 9 16 16 40 16 53 0 42 67 164 134 245 66 78
127 126 246 191 77 42 111 51 230 61 117 9 137 8 230 -20z"/>
<path d="M3370 5944 c-112 -25 -200 -97 -251 -206 -31 -67 -34 -81 -34 -168 0
-77 5 -104 23 -144 31 -69 136 -169 204 -194 172 -64 347 -14 453 129 51 70
60 101 60 224 0 82 -3 97 -32 156 -46 93 -121 161 -205 187 -93 29 -144 33
-218 16z m195 -55 c84 -26 144 -78 186 -164 38 -77 44 -122 30 -210 -24 -158
-163 -270 -331 -267 -78 2 -133 22 -194 70 -104 81 -148 186 -127 303 14 82
66 177 116 212 22 15 50 34 61 43 51 36 167 42 259 13z"/>
<path d="M11430 6306 c-79 -17 -220 -74 -253 -102 -16 -13 -34 -24 -41 -24
-36 0 -214 -220 -245 -302 -7 -18 -22 -55 -33 -82 -23 -56 -42 -269 -28 -313
5 -16 13 -48 19 -73 20 -91 34 -136 51 -155 10 -11 27 -38 38 -61 25 -48 164
-204 196 -219 12 -5 34 -20 50 -32 15 -12 51 -30 79 -40 l52 -18 -202 -3 -203
-2 0 -40 0 -40 435 0 435 0 0 35 c0 24 5 35 14 35 20 0 161 75 225 120 29 21
78 71 108 112 30 40 63 82 73 93 10 11 36 76 59 145 69 215 65 326 -20 541
-33 82 -139 221 -207 271 -105 77 -125 88 -267 136 -88 31 -242 39 -335 18z
m250 -42 c30 -3 73 -14 95 -24 22 -10 61 -26 87 -35 44 -15 140 -80 181 -121
116 -119 165 -210 208 -389 20 -83 21 -101 11 -140 -7 -25 -12 -58 -12 -73 0
-41 -66 -235 -89 -263 -11 -13 -42 -53 -69 -89 -58 -77 -112 -120 -225 -178
-74 -39 -96 -45 -198 -57 -95 -11 -129 -11 -204 1 -111 16 -211 51 -254 87
-18 15 -39 27 -47 27 -8 0 -24 12 -37 26 -12 14 -46 51 -75 82 -29 32 -62 75
-74 97 -11 22 -28 48 -36 58 -37 42 -66 193 -66 337 0 97 3 123 23 170 13 30
30 73 39 95 30 71 190 265 220 265 6 0 23 11 39 24 34 29 176 86 252 101 54
11 126 11 231 -1z"/>
<path d="M11453 5936 c-65 -16 -94 -35 -164 -107 -68 -69 -99 -146 -99 -249 0
-111 31 -182 114 -266 64 -65 78 -74 146 -94 67 -20 83 -22 157 -13 68 8 93
17 153 52 60 36 77 53 119 118 42 64 51 87 57 141 20 186 -51 319 -211 398
-66 32 -190 41 -272 20z m245 -56 c141 -63 214 -189 198 -343 -6 -55 -15 -78
-51 -133 -90 -136 -229 -185 -393 -138 -47 13 -68 28 -118 78 -98 99 -127 217
-84 342 21 59 77 128 144 177 67 48 214 57 304 17z"/>
<path d="M12615 5993 c-85 -4 -145 -13 -145 -22 0 -18 199 -24 768 -22 l593 1
-3 -172 c-1 -95 1 -179 6 -186 5 -9 21 -12 42 -10 l34 4 0 -87 c0 -47 3 -99 6
-115 l5 -29 -308 -1 c-169 -1 -492 -2 -718 -3 -238 -1 -416 -6 -425 -11 -8 -5
-13 -10 -10 -11 3 -1 325 -3 716 -4 390 -1 716 -5 722 -9 6 -4 21 -2 32 4 19
10 20 19 18 151 -2 135 -2 140 -24 145 -12 3 -32 3 -43 -1 -19 -6 -19 -2 -15
180 3 144 1 187 -8 190 -14 5 -1139 12 -1243 8z"/>
<path d="M1353 5983 c-68 -2 -123 -8 -123 -12 0 -5 52 -12 115 -16 141 -9
1031 -2 1041 8 4 4 4 10 1 14 -8 7 -841 12 -1034 6z"/>
<path d="M4758 5983 c-60 -2 -108 -8 -108 -12 0 -5 46 -12 103 -16 132 -9
1043 -2 1053 8 4 4 4 10 1 13 -7 8 -883 13 -1049 7z"/>
<path d="M8768 5983 c-171 -7 -85 -21 180 -28 289 -8 1519 -1 1529 9 4 3 3 9
-1 14 -8 7 -1545 12 -1708 5z"/>
<path d="M6493 5623 c-127 -3 -163 -6 -163 -17 0 -10 55 -14 257 -19 545 -14
1543 -5 1543 14 0 4 -8 10 -17 14 -18 7 -1327 13 -1620 8z"/>
<path d="M9120 5619 c-234 -3 -429 -7 -435 -8 -5 0 -3 -7 4 -13 16 -17 1768
-15 1784 1 6 6 7 11 2 11 -385 12 -883 16 -1355 9z"/>
<path d="M4690 5611 c-34 -5 -41 -8 -30 -16 16 -11 1136 -12 1147 -1 4 3 3 9
-1 14 -9 9 -1053 12 -1116 3z"/>
<path d="M12658 5613 c-63 -16 32 -21 405 -25 556 -4 697 -1 697 18 0 12 -80
14 -542 13 -299 -1 -551 -4 -560 -6z"/>
<path d="M1720 4840 l0 -40 435 0 435 0 0 40 0 40 -435 0 -435 0 0 -40z"/>
<path d="M4340 4840 l0 -40 440 0 440 0 0 40 0 40 -440 0 -440 0 0 -40z"/>
<path d="M5660 4840 l0 -40 435 0 435 0 0 40 0 40 -435 0 -435 0 0 -40z"/>
<path d="M6970 4840 l0 -40 435 0 435 0 0 40 0 40 -435 0 -435 0 0 -40z"/>
<path d="M8280 4840 l0 -40 440 0 440 0 0 40 0 40 -440 0 -440 0 0 -40z"/>
<path d="M9600 4840 l0 -40 435 0 435 0 0 40 0 40 -435 0 -435 0 0 -40z"/>
<path d="M12220 4840 l0 -40 440 0 440 0 0 40 0 40 -440 0 -440 0 0 -40z"/>
<path d="M820 4835 l0 -35 230 0 230 0 0 35 0 35 -230 0 -230 0 0 -35z"/>
<path d="M13540 4835 l0 -35 225 0 225 0 0 35 0 35 -225 0 -225 0 0 -35z"/>
</g>
</svg>
