<?xml version="1.0" standalone="no"?>
<!DOCTYPE svg PUBLIC "-//W3C//DTD SVG 20010904//EN"
 "http://www.w3.org/TR/2001/REC-SVG-20010904/DTD/svg10.dtd">
<svg version="1.0" xmlns="http://www.w3.org/2000/svg"
 width="1501.000000pt" height="1500.000000pt" viewBox="0 0 1501.000000 1500.000000"
 preserveAspectRatio="xMidYMid meet">

<g transform="translate(0.000000,1500.000000) scale(0.100000,-0.100000)"
fill="#000000" stroke="none">
<path d="M2908 9064 c-2 -1 -448 -5 -993 -9 -545 -4 -1037 -10 -1095 -14 -77
-5 -32 -7 165 -7 149 1 952 -3 1785 -8 1449 -8 7467 -9 8460 -1 261 2 516 8
565 12 l90 9 -65 7 c-36 4 -103 6 -150 6 -47 0 -2037 1 -4422 4 -2386 2 -4339
3 -4340 1z"/>
<path d="M12105 9030 c44 -4 109 -15 145 -25 36 -10 92 -23 125 -30 33 -6 150
-44 260 -83 212 -75 446 -188 539 -262 28 -21 79 -56 115 -77 36 -21 84 -54
106 -74 22 -20 60 -49 85 -64 81 -50 390 -372 390 -406 0 -5 -408 -9 -906 -9
-1044 1 -963 8 -976 -91 -8 -62 -1 -872 7 -899 3 -10 13 -21 21 -24 9 -3 530
-6 1158 -6 627 0 1160 -3 1183 -6 39 -6 44 -10 53 -43 5 -20 10 -52 10 -72 0
-20 7 -58 15 -85 24 -79 46 -341 46 -553 0 -175 -2 -203 -22 -266 -49 -157
-71 -211 -104 -255 -40 -55 -163 -173 -221 -213 -56 -38 -276 -117 -347 -124
-37 -4 -54 -9 -45 -14 36 -23 183 2 318 53 105 40 271 180 344 289 22 33 54
108 81 191 l45 137 0 203 c0 223 -21 495 -45 572 -8 27 -15 66 -15 87 0 55
-82 331 -124 419 -20 41 -36 80 -36 86 0 12 -86 182 -170 337 -23 43 -78 126
-123 185 -45 59 -107 141 -138 182 -72 95 -297 316 -369 362 -30 20 -64 45
-75 57 -10 12 -58 45 -105 73 -47 28 -114 73 -150 99 -111 81 -312 172 -539
243 -113 36 -233 70 -266 75 -33 6 -91 17 -130 25 -38 9 -104 15 -145 14 l-75
-1 80 -7z m1793 -1242 c7 -7 12 -20 12 -31 0 -10 11 -35 25 -55 14 -20 25 -49
25 -63 0 -15 6 -44 14 -66 8 -23 11 -46 6 -53 -6 -10 -10 -6 -15 16 -10 46
-47 168 -56 184 -39 72 -43 100 -11 68z m-1522 -540 c-9 -13 -24 -36 -34 -52
-23 -39 -92 -116 -104 -116 -6 0 12 26 39 58 27 31 61 74 76 95 16 20 31 37
34 37 3 0 -2 -10 -11 -22z"/>
<path d="M3880 8760 c-3 -199 -8 -322 -15 -328 -5 -5 -403 -7 -2290 -13 -341
-1 -717 -4 -835 -8 -225 -6 912 -20 1990 -23 750 -3 911 -4 1032 -6 l106 -2
-1 -1045 -2 -1045 -1575 0 c-1152 0 -1579 -3 -1587 -11 -6 -6 -9 -18 -6 -25 4
-12 253 -14 1589 -14 l1584 0 1 -247 c1 -137 4 -309 8 -383 l6 -135 8 105 c4
58 7 197 8 310 0 113 3 238 6 278 l5 72 3762 -2 3761 -3 45 -24 c25 -13 219
-154 432 -313 231 -173 394 -288 404 -286 10 2 19 8 21 15 6 16 -778 602 -847
633 l-55 25 -3763 3 -3764 2 3 588 c2 323 2 793 0 1046 l-4 458 3614 3 c3721
3 5539 11 5597 23 69 15 -3679 24 -8652 22 -308 0 -560 1 -562 3 -2 1 -4 93
-5 202 -2 227 -16 319 -19 125z"/>
<path d="M595 8002 c-44 -2 -82 -8 -86 -14 -10 -16 -11 -981 -1 -996 11 -17
2947 -21 2964 -4 13 13 12 992 -1 1005 -8 8 -2689 16 -2876 9z m1487 -444
c-24 -38 -109 -104 -120 -93 -4 4 2 12 13 19 11 6 43 34 70 62 28 28 52 49 54
48 2 -2 -6 -18 -17 -36z m1193 -220 c0 -40 3 -85 8 -100 6 -21 4 -28 -7 -28
-11 0 -15 20 -18 93 -3 94 -2 107 10 107 4 0 7 -33 7 -72z"/>
<path d="M5004 8002 l-701 -2 -5 -153 c-10 -281 -4 -845 9 -858 16 -16 2953
-16 2963 1 4 6 7 231 7 500 0 403 -2 492 -13 501 -15 12 -881 16 -2260 11z
m2056 -432 c-11 -16 -25 -32 -31 -35 -5 -4 -20 -27 -33 -53 -14 -26 -61 -85
-105 -130 -45 -46 -89 -97 -98 -113 -10 -16 -21 -29 -25 -29 -17 0 27 67 81
125 32 33 77 89 100 124 40 59 114 141 127 141 3 0 -4 -13 -16 -30z m-1169
-189 c-15 -27 -122 -123 -130 -115 -5 5 126 134 136 134 2 0 -1 -8 -6 -19z"/>
<path d="M8099 7989 c-14 -27 -13 -996 2 -1005 15 -9 2952 -5 2961 4 13 13 12
992 -2 1006 -7 7 -448 10 -1481 11 -1339 0 -1472 -1 -1480 -16z m509 -276
c-33 -46 -131 -155 -106 -118 7 11 37 53 67 93 58 78 93 101 39 25z m2333
-611 c-12 -22 -51 -58 -51 -47 0 9 50 65 57 65 2 0 -1 -8 -6 -18z"/>
<path d="M11547 7958 c-17 -125 -29 -492 -25 -761 5 -267 9 -320 22 -306 24
25 41 1032 19 1088 -9 23 -10 21 -16 -21z"/>
<path d="M12824 6277 c-2 -7 -3 -67 -2 -133 l3 -119 195 3 c227 3 322 10 315
23 -4 5 -39 9 -78 9 -40 0 -143 3 -229 7 l-158 6 0 82 0 82 287 7 c158 4 289
9 292 12 17 16 -48 22 -317 27 -240 5 -304 4 -308 -6z"/>
<path d="M3046 5362 c-2 -1 -407 -4 -900 -6 -493 -2 -899 -6 -902 -9 -13 -13
12125 -14 12271 -1 96 9 55 11 -335 18 -390 7 -10127 5 -10134 -2z"/>
<path d="M863 5353 c9 -2 23 -2 30 0 6 3 -1 5 -18 5 -16 0 -22 -2 -12 -5z"/>
<path d="M995 5350 c-33 -4 3 -5 80 -2 77 2 142 6 144 8 7 6 -157 1 -224 -6z"/>
<path d="M613 5343 c43 -2 110 -2 150 0 40 1 5 3 -78 3 -82 0 -115 -2 -72 -3z"/>
<path d="M13445 5319 c-4 -6 17 -47 47 -92 30 -45 62 -93 71 -107 l16 -26
-387 4 c-419 4 -5162 5 -6497 2 -192 0 -1510 -3 -2929 -5 -1418 -2 -2581 -7
-2584 -10 -3 -3 23 -5 58 -4 36 1 868 -1 1850 -5 982 -3 2253 -5 2825 -4 572
0 1058 1 1080 1 22 0 1451 0 3175 -1 1724 0 3200 0 3280 1 l144 2 65 -93 c36
-51 67 -88 69 -82 8 22 -244 430 -265 430 -6 0 -15 -5 -18 -11z"/>
<path d="M553 5083 c9 -2 25 -2 35 0 9 3 1 5 -18 5 -19 0 -27 -2 -17 -5z"/>
<path d="M893 5083 c42 -2 112 -2 155 0 42 1 7 3 -78 3 -85 0 -120 -2 -77 -3z"/>
<path d="M1138 5073 c6 -2 18 -2 25 0 6 3 1 5 -13 5 -14 0 -19 -2 -12 -5z"/>
<path d="M510 4835 l0 -35 6845 0 6845 0 0 35 0 35 -6845 0 -6845 0 0 -35z"/>
</g>
</svg>
