<?xml version="1.0" encoding="utf-8"?><!-- Uploaded to: SVG Repo, www.svgrepo.com, Generator: SVG Repo Mixer Tools -->
<svg width="800px" height="800px" viewBox="0 0 64 64" xmlns="http://www.w3.org/2000/svg" xmlns:xlink="http://www.w3.org/1999/xlink" aria-hidden="true" role="img" class="iconify iconify--emojione-monotone" preserveAspectRatio="xMidYMid meet"><path d="M32 2C15.432 2 2 15.432 2 32s13.432 30 30 30s30-13.432 30-30S48.568 2 32 2m-.983 36.883v21.092a27.845 27.845 0 0 1-2.95-.256V35.934h31.652a27.89 27.89 0 0 1-.577 2.949H31.017m-26.154.023a28.042 28.042 0 0 1-.582-2.973H20.2v21.45a27.922 27.922 0 0 1-2.95-1.599V38.906H4.863m12.387-13.79V8.215a28.021 28.021 0 0 1 2.95-1.599v21.45H4.281c.142-1.001.333-1.986.577-2.95H17.25m10.816 2.95V4.281a27.845 27.845 0 0 1 2.95-.256v21.091h28.125c.244.964.436 1.949.577 2.95H28.066" fill="#000000"></path></svg>