<svg width="1000" height="1000" xmlns="http://www.w3.org/2000/svg" version="1.1" enable-background="new 0 0 100 100" xml:space="preserve">
 <g>
  <title>Layer 1</title>
  <g stroke="null" id="svg_1">
   <path stroke="null" d="m983.02155,403.939l-35.83306,-5.29725c0,0 33.7645,-33.58939 31.52083,-97.63797l-34.27891,0.01094c0,0 26.92404,-39.95922 26.79271,-101.27162l-32.88892,4.32317c0,0 21.45168,-57.82103 -5.33009,-146.57187c-88.75084,-26.79271 -146.57187,-5.33009 -146.57187,-5.33009l4.32317,-32.88892c-61.3124,-0.13134 -101.27162,26.79271 -101.27162,26.79271l0.01094,-34.27891c-64.04858,-2.24367 -97.63797,31.50989 -97.63797,31.50989l-5.27536,-35.81117c-65.83257,20.7731 -90.38161,60.92933 -90.38161,60.92933l-5.24253,-36.63202c-68.20758,27.13199 -84.98586,87.51409 -84.98586,87.51409l-16.95339,-34.1804c-55.84003,42.80485 -68.05435,107.60862 -68.05435,107.60862l-16.59222,-41.77605c-54.51572,54.08887 -58.34637,119.70255 -58.34637,119.70255l-21.94419,-39.83883c-51.14474,80.7393 -25.04155,141.51541 -25.04155,141.51541l-33.78639,-36.48974c-32.82326,75.24504 -11.78748,146.33109 -11.78748,146.33109l-26.92404,-38.78814c-29.17866,87.51409 22.54615,174.0541 22.54615,174.0541l-42.55312,-32.87798c0.20795,38.39413 8.318,110.48709 52.50189,182.42682c38.83191,-33.58939 77.43399,-67.45239 115.92662,-101.44674l3.85255,-200.09162c0.0985,-5.23158 7.08124,-5.35197 7.36581,-0.12039l9.62042,181.74825c47.76282,-42.34517 95.26296,-84.98586 142.38004,-128.03149l3.38192,-290.80157c0.07661,-6.92802 7.05935,-7.03746 7.36581,-0.10945l11.57953,270.3787c17.85086,-16.38427 35.7455,-32.72475 53.48691,-49.21847c29.1896,-27.08822 58.03992,-54.52666 86.67135,-82.17306l11.72181,-217.83303c0.28456,-5.23158 7.2673,-5.11119 7.36581,0.13134l3.56798,195.52767c16.05592,-15.66191 32.18846,-31.25816 48.08021,-47.08424l38.26279,-38.89758c12.17054,-12.50983 23.92519,-25.36989 35.88778,-38.07673l9.9816,-81.39598c0.26267,-2.14517 5.49426,-1.84966 5.51615,0.30645l0.59102,63.51229c7.25636,-8.17572 14.41421,-16.43899 21.63774,-24.65848c12.29094,-13.44013 22.973,-27.93096 34.09285,-42.19195c3.61176,-4.66246 8.47122,-7.00463 10.99946,-5.29725c1.90438,1.29148 1.91533,4.59679 0.29551,8.24138c-0.98503,0.88652 -1.94816,1.94816 -2.8128,3.16303c-10.61639,14.64405 -20.78405,29.49606 -32.59342,43.36303c-11.50292,14.04209 -22.60087,28.34686 -34.79331,41.86361c-12.01732,13.64808 -23.76102,27.49317 -35.98628,40.95519l-36.88375,40.21095c-49.74381,53.12574 -100.3851,105.44156 -152.02235,156.82709c-161.56616,161.05176 -327.89327,317.70373 -497.00035,470.45937c-21.98797,19.62391 -23.83763,37.85783 -13.61525,48.99957c10.22238,11.15268 28.55481,10.67112 49.99554,-9.95971c49.53586,-48.23344 98.62299,-96.86089 147.4584,-145.69629c72.96854,45.88032 146.57187,54.16549 185.52418,54.38438l-32.87798,-42.55312c0,0 86.55095,51.71387 174.0541,22.54615l-38.78814,-26.92404c0,0 71.08604,21.03578 146.33109,-11.78748l-36.48974,-33.78639c0,0 60.77611,26.10319 141.51541,-25.04155l-39.83883,-21.94419c0,0 65.61368,-3.83066 119.70255,-58.34637l-41.77605,-16.59222c0,0 64.80377,-12.21432 107.60862,-68.05435l-34.1804,-16.95339c0,0 60.3821,-16.77828 87.51409,-84.98586l-36.63202,-5.23158c0.01094,-0.01094 40.16717,-24.54904 60.94028,-90.38161zm-214.63717,-163.91928l101.20595,-1.64171c2.35312,-0.03283 2.55012,3.44759 0.20795,3.67743l-111.80045,10.82434c3.45854,-4.29034 6.90613,-8.58067 10.38655,-12.86006zm-209.27425,497.41625l-246.03761,-1.13825c7.50809,-7.65037 14.91767,-15.37735 22.41481,-23.04961l223.91831,16.833c5.34103,0.40496 5.06741,7.37675 -0.29551,7.35486zm252.86713,-158.12951l-346.8605,3.65554c-1.29148,0.01094 -2.47351,-0.22984 -3.69932,-0.37212c7.6832,-8.07721 15.30074,-16.23104 22.96205,-24.33014l327.7291,13.68092c7.20163,0.30645 7.09219,7.28919 -0.13134,7.36581zm64.72715,-173.5397l-254.34466,8.7339c-1.35715,0.04378 -2.63768,-0.18606 -3.88538,-0.47062c7.31108,-8.08816 14.56744,-16.23104 21.83474,-24.36298l236.40625,8.7339c5.28631,0.19701 5.28631,7.17975 -0.01094,7.36581z" id="svg_2"/>
  </g>
 </g>

</svg>