<svg width="1000" height="1000" xmlns="http://www.w3.org/2000/svg" xml:space="preserve" enable-background="new 0 0 100 100" version="1.1">

 <g>
  <title>Layer 1</title>
  <g stroke="null" id="svg_1">
   <path stroke="null" id="svg_2" d="m59.7156,914.67459c0,0 24.42503,-22.1232 46.93187,-52.47332c3.66589,-4.94468 7.54491,-10.47193 12.33329,-18.45731c4.58946,-7.65858 7.7012,-13.86785 8.29797,-15.10402c9.3068,-19.32405 -5.08677,-50.88193 -17.19272,-91.68978c-5.98193,-20.17658 -2.65706,-13.11478 -11.36709,-45.02788c-7.10443,-26.00222 -17.22114,-59.69142 -31.47263,-98.76579l-16.85171,-69.04085l-10.72769,-42.91076c-9.83253,-15.30294 -11.99228,-28.73032 -12.54642,-35.96263c-0.4831,-6.20927 0.26997,-12.43275 1.77611,-24.86551c1.87557,-15.51608 2.8844,-23.30253 6.49345,-25.0218c8.86633,-4.23424 23.68617,17.12168 31.24528,12.58905c3.31066,-1.97503 4.27687,-8.3406 2.85598,-12.64589c-0.9662,-2.94123 -2.61443,-5.17203 -5.11519,-6.47924c-30.53484,-15.92813 -17.88896,-45.68149 -22.52104,-69.76551c-1.83294,-9.54835 3.66589,-12.48959 12.48959,-9.47731c6.84867,2.33025 13.78259,4.74576 16.49649,-5.29991c3.77956,-14.00994 9.12209,-27.9062 10.52877,-42.1719c0.98041,-9.98883 -1.57718,-21.35592 4.13478,-27.18155c3.63747,-3.70851 8.66741,0.31259 17.33481,-3.60905c4.87364,-2.20237 7.98538,-5.22886 9.81832,-7.0618c1.42089,-1.42089 5.86826,-6.05297 9.7757,-15.68658c4.9731,-12.27646 4.14899,-20.51759 6.22348,-20.71652c3.22541,-0.31259 5.95351,19.55139 9.91778,19.39509c4.60367,-0.18472 10.5856,-27.36627 11.09712,-29.75335c0.86674,-3.97848 1.84715,-9.23576 4.51842,-9.73307c2.44392,-0.46889 5.71196,4.24845 6.28032,5.07256c4.07794,5.9393 13.3137,14.89089 35.83475,28.19038c3.96427,-2.04608 9.64782,-5.54146 14.94772,-11.39551c4.83101,-5.32832 5.83984,-8.75266 9.47731,-9.47731c6.8913,-1.36405 10.31563,9.54835 16.88013,8.88054c6.72079,-0.68203 12.57484,-13.08636 20.60285,-30.10858c1.56297,-3.31066 4.95889,-10.78453 8.78108,-10.48614c0.80991,0.05684 1.36405,0.44047 1.7619,0.71044c3.28225,2.18816 10.18775,6.13823 13.25687,6.42241c3.22541,0.31259 5.92509,-3.05491 15.2319,-17.83212c4.60367,-7.30335 11.45234,-15.48766 19.13934,-25.50491c2.30184,-2.99807 6.46503,-6.47924 9.00842,-5.25728c1.57718,0.76728 1.93241,3.18278 2.10291,4.47579c1.71927,12.27646 5.08677,22.47842 6.46503,26.04484c1.70506,4.40475 4.80259,12.43275 9.7757,12.87323c5.54146,0.49731 9.90358,-8.79528 13.98152,-7.23231c1.40668,0.53994 1.96082,2.06028 2.55759,3.53801c1.97503,4.88785 7.01918,17.39165 11.43813,17.90316c4.09215,0.4831 5.58408,-9.60519 16.62437,-18.25839c3.26804,-2.5718 6.37978,-4.22003 8.68161,-5.27149c-1.56297,7.24652 0.59677,14.57829 5.7688,19.09671c4.67472,4.07794 10.15934,4.40475 11.99228,4.44737c5.92509,-7.10443 11.83598,-14.20886 17.76108,-21.31329c0,0 35.83475,-32.53829 36.92883,-33.54712c0.36943,0.73886 0.86674,1.50614 1.47772,2.27342c0,0 1.70506,2.11712 4.37633,3.58063c6.72079,3.6943 16.72383,1.49193 16.72383,1.49193c18.4431,-4.04953 30.84744,-18.45731 33.74604,-15.98497c2.68547,2.28763 -4.34791,17.76108 -1.52035,20.88703c1.09408,1.20775 2.50076,2.01766 2.50076,2.01766c0.7957,0.45468 1.70506,0.82411 2.85598,1.10829c13.45579,3.33908 26.03063,21.18541 42.41345,5.17203c4.09215,-3.99269 12.3475,-9.29259 15.57291,-7.7012c5.78301,2.85598 7.00497,2.81335 14.53566,3.06911c8.44006,0.29839 15.30294,-3.87902 19.75032,-6.5787c9.44889,-5.74038 12.60326,-11.77915 14.90509,-10.64244c3.42434,1.70506 -3.35329,15.21769 2.77073,21.86744c2.84177,3.08332 7.23231,3.48117 10.88399,3.45275c31.52946,-0.14209 59.53513,-9.97462 84.20171,-30.23646c4.61788,-3.79377 9.51994,-10.48614 17.54794,-9.17892c11.76494,28.26142 11.53759,27.72149 42.08665,15.40241c26.86896,-10.82715 35.16693,-22.83364 45.01367,-18.94041c5.81142,2.30184 4.40475,6.59291 11.02608,9.83253c10.95503,5.37095 28.68769,0.44047 38.63389,-10.21617c5.81142,-6.22348 11.8644,-17.49111 20.17658,-29.32709c0.99462,-1.42089 3.39592,-4.73155 7.00497,-5.1294c1.33563,-0.14209 2.50076,0.14209 4.57525,0.92358c5.20044,1.94661 8.11326,3.99269 9.53415,4.67472c1.64823,0.7957 6.59291,2.33025 31.47263,-15.70079c5.64092,-4.07794 10.24459,-6.77763 17.1643,-10.95503c5.17203,-3.12595 11.73652,-7.23231 16.56753,-2.89861c1.83294,1.63402 2.48655,3.90744 2.60022,4.43316c0.28418,1.34984 0.39785,3.65168 -3.86481,10.91241c-1.23617,2.11712 -2.99807,4.88785 -5.32832,7.99959c-8.26956,10.64244 -15.2319,18.84095 -20.11975,24.41082c-7.8575,8.96579 -11.40972,12.39013 -12.74535,19.09671c-1.50614,7.63016 1.40668,11.65127 -1.77611,15.54449c-3.75114,4.58946 -9.37785,0.89516 -17.3206,4.88785c-4.31949,2.17396 -7.91434,7.95696 -15.10402,19.53718c-5.99614,9.66203 -3.02649,6.76342 -10.21617,19.09671c-3.82218,6.55028 -6.46503,10.45772 -4.88785,13.32791c1.54877,2.79915 5.56987,1.74769 7.99959,5.32832c1.69085,2.50076 1.73348,5.95351 0.89516,8.44006c-1.83294,5.37095 -7.68699,5.83984 -14.94772,10.79873c-4.12057,2.81335 -6.5787,6.29453 -12.13437,12.73114c-9.24997,10.69927 -16.6812,19.29563 -15.88551,30.12278c0.07104,0.99462 0.98041,11.36709 8.48269,16.86592c5.37095,3.93585 10.57139,2.79915 11.45234,5.68354c1.00883,3.32487 -5.24307,6.91972 -12.70272,14.20886c-2.62864,2.5718 -11.65127,11.50918 -16.97959,22.97573c-3.0407,6.56449 -8.52532,19.53718 -3.68009,29.00028c3.3675,6.59291 11.12554,10.94082 23.58671,13.58367c8.95158,1.88978 17.44848,5.08677 8.75266,13.82522c-13.93889,14.00994 -12.00649,34.74066 -24.11244,48.96373c-2.4013,2.82756 -5.7688,7.04759 -1.25038,9.71886c17.10747,10.08829 3.90744,17.27797 -2.17396,24.68079c-5.07256,6.18085 -7.61595,12.21962 -5.91089,17.20693c1.05146,3.09753 3.41013,4.63209 9.7757,8.42585c20.10554,11.96386 21.78218,12.16278 22.71997,14.70617c1.4493,3.92165 -0.98041,7.65858 -16.28335,28.8582c-12.9869,17.98842 -16.41123,22.45 -15.10402,27.97725c2.07449,8.72424 13.44158,9.24997 13.32791,15.10402c-0.19892,9.74728 -31.87047,14.66354 -34.54174,28.3751c-0.62519,3.29646 -0.07104,6.26611 -0.07104,6.26611c12.43275,11.58022 6.22348,21.68272 -1.84715,31.99835c-2.85598,3.65168 -5.44199,8.31218 -1.73348,12.53222c9.96041,11.35288 16.97959,26.01642 32.8793,30.96111c4.80259,1.49193 12.07753,-0.55415 12.57484,6.90551c0.39785,6.05297 -5.98193,8.1843 -10.03146,11.53759c-10.5856,8.78108 -21.31329,17.43427 -31.37316,26.79791c-9.16472,8.52532 12.74535,22.05215 8.09905,29.5118c-2.38709,3.83639 -7.47386,2.61443 -18.76991,6.06718c-8.83791,2.71389 -15.64396,6.50766 -20.17658,9.43468c-16.89434,11.56601 -19.92082,18.35785 -18.89778,22.53525c0.61098,2.48655 3.2112,6.36557 2.01766,11.35288c-0.4831,2.01766 -1.42089,3.55222 -2.15975,4.53263c-11.94965,0.17051 -26.44269,10.13092 -25.12127,15.65816c1.7619,7.3744 3.58063,14.27991 11.08291,23.85668c8.63899,11.04028 17.78949,18.14472 23.95614,22.30791c-4.73155,0.45468 -11.92123,1.73348 -19.53718,5.7688c-11.12554,5.89668 -17.98842,14.94772 -20.43234,18.20155c-7.90013,10.59981 -7.97117,16.96538 -13.32791,17.76108c-4.77418,0.71044 -9.1363,-3.70851 -15.75763,-1.90399c-1.15092,0.31259 -2.33025,0.83832 -3.11174,1.93241c-1.57718,2.18816 -0.73886,5.48462 0.62519,7.5307c3.75114,5.59829 4.37633,9.06525 3.23962,11.28184c-1.10829,2.17396 -3.96427,3.15437 -10.69927,4.29108c-19.82136,3.33908 -29.72494,5.00152 -35.60741,4.06373c-1.57718,-0.25576 -5.68354,-0.95199 -7.10443,0.92358c-0.53994,0.71044 -0.61098,1.88978 0.11367,3.83639c8.61057,23.14623 -10.01725,17.24956 -19.8782,17.87475c-22.1232,1.40668 -44.37427,0.99462 -66.56851,1.34984c-8.99421,0.14209 -20.65968,-4.51842 -15.715,13.83943c2.28763,8.4969 -7.74383,6.84867 -13.51263,6.19506c-20.64547,-2.34446 -40.90731,-6.43661 -60.25978,-14.30832c-44.31744,-20.71652 -88.30807,-42.0156 -137.07288,-51.20873c-6.08139,-1.15092 -17.91737,-6.94813 -33.54712,-14.64934c-13.83943,-6.82025 -20.17658,-10.95503 -26.98263,-14.57829c-22.2937,-11.8644 -42.68342,-14.57829 -66.61114,-17.76108c-32.66617,-4.34791 -48.99215,-6.52187 -68.08886,-0.45468c-17.71845,5.62671 -29.46918,13.45579 -52.03285,38.09396c-16.46807,17.97421 -40.65155,42.91076 -74.36918,72.91987c-7.90013,4.91627 -15.01877,6.52187 -19.53718,7.10443c-5.47041,0.71044 -16.75225,2.17396 -19.97766,-3.55222c-2.11712,-3.76535 0.22734,-8.90896 1.39247,-11.11133c16.61016,-9.36364 35.97684,-22.23687 55.65611,-39.84165zm486.44035,-462.12899c54.3631,-3.96427 108.32835,-14.46462 159.82127,-32.28253c26.1301,-9.1363 52.21756,-18.48573 77.92139,-28.7019l77.04044,-30.86165l-77.9356,28.53139c-25.8175,9.9462 -51.91918,18.99725 -78.0919,27.84937c-49.51788,16.63858 -101.1813,26.03063 -153.15731,30.05174c35.94842,-34.78329 71.08693,-68.60038 104.16516,-100.20089l47.92649,-9.80411c16.41123,-3.01228 32.23991,-8.26956 48.02595,-13.56946c31.48684,-10.81294 61.83696,-24.76604 90.62411,-41.30516c-29.58285,15.04718 -60.31661,27.65044 -91.78924,37.80978c-15.80025,4.73155 -31.61472,9.87516 -47.89807,12.71693l-40.35316,7.88592c29.48339,-28.11934 57.36117,-54.5194 82.39718,-77.87877c15.18927,-14.22307 29.31288,-27.29522 42.29978,-39.21646l0.61098,-0.19892c35.08168,-11.225 70.17756,-22.39316 104.83297,-34.99642c-33.00718,8.66741 -65.63073,18.5994 -98.24006,28.58823c46.37772,-42.39924 75.50589,-67.57734 75.50589,-67.57734s-30.67693,24.31136 -78.33345,66.02858l7.54491,-20.81598c3.35329,-9.09367 6.52187,-18.48573 10.03146,-27.33785c7.60174,-17.87475 16.0418,-35.42269 25.32019,-52.58699c-10.67085,16.32598 -20.16237,33.47608 -28.36089,51.23715c-4.12057,9.07946 -7.0618,18.22997 -10.64244,27.33785l-10.27301,27.38047l-0.22734,0.59677c-13.37054,11.76494 -27.87778,24.72342 -43.40807,38.88965c-25.23494,22.94731 -53.12693,48.97794 -82.55348,76.74206c7.51649,-32.99297 16.52491,-65.65915 27.4231,-97.71434c11.73652,-34.81171 25.3344,-69.02665 40.63734,-102.53114c-17.05063,32.65196 -31.89889,66.49747 -44.36006,101.22392c-12.29066,34.37123 -22.39316,69.55237 -30.27908,105.21661c-33.44766,31.60051 -68.92718,65.47443 -105.38712,100.24351c9.98883,-49.10582 20.37551,-98.05535 31.20266,-147.03329l8.41165,-38.61968c2.37288,-13.00111 6.91972,-25.27756 10.21617,-38.09396l21.05753,-76.21633l-23.33095,75.54851l-5.68354,18.9262c-2.01766,6.26611 -3.72272,12.78797 -5.04415,19.18196l-8.80949,38.53443c-11.8644,51.09506 -23.34516,102.40326 -34.28598,153.73987c-23.25991,22.18003 -46.84661,44.65845 -70.50437,67.09424c-30.71956,29.25604 -61.35386,58.41263 -91.32035,86.95823l41.6888,-226.1056c7.57332,-39.14541 17.15009,-77.94981 29.54022,-115.85905c5.89668,-19.02566 13.20003,-37.6819 19.57981,-56.59389l19.7219,-56.57968l-21.01491,56.11079c-6.82025,18.78411 -14.52146,37.1988 -20.90123,56.19604c-12.8306,37.90924 -22.67734,76.78468 -30.60589,116.00114l-44.95684,233.46579c-15.57291,14.83405 -31.01794,29.52601 -46.05092,43.84854c-22.98994,21.95269 -45.41152,42.99601 -66.17066,63.6557c-7.33177,7.18968 -14.27991,14.40778 -21.08595,21.59747l19.13934,-136.93079c3.73693,-25.0218 6.43661,-50.31358 9.26418,-75.42063l7.88592,-75.5343c9.63361,-100.6982 27.4231,-200.54386 52.82854,-298.54237c-13.75418,48.70797 -25.59016,97.99851 -35.29481,147.71532c-9.57677,49.74522 -16.41123,100.03038 -21.72535,150.37237l-8.39744,75.43484c-3.01228,25.16389 -5.85405,50.1857 -9.7757,75.2075l-21.37013,145.61241c-9.7757,10.55718 -19.03987,20.92965 -27.79253,30.74797c-8.25535,9.17892 -16.24073,17.87475 -23.94193,26.08747c1.10829,-21.82481 1.30722,-43.69225 0.24155,-65.53127c-1.34984,-25.64699 -4.10636,-51.40766 -9.27839,-76.54313l-16.05601,-75.06541c-2.20237,-12.54642 -4.37633,-25.09285 -5.81142,-37.75294c-1.67665,-12.63168 -2.71389,-25.34861 -3.56642,-38.05133c-3.28225,-50.91035 -0.9662,-102.10487 4.14899,-152.92997c4.66051,-50.91035 12.10595,-101.56494 19.57981,-152.1769c-8.63899,50.42725 -17.26377,100.91133 -23.11782,151.82168c-5.54146,50.91035 -8.26956,102.3038 -5.38516,153.58358c0.76728,12.80218 1.70506,25.63278 3.29646,38.37813c1.34984,12.77377 3.43854,25.46228 5.56987,38.13658l15.45924,75.16487c9.44889,48.89269 10.62823,98.97892 7.7012,148.63889c-14.03835,15.08981 -23.45883,23.74301 -29.65389,28.94345c-3.02649,2.54339 -6.60712,6.13823 -13.76839,13.32791c-7.27494,7.30335 -9.07946,9.54835 -8.44006,10.65665c0.9662,1.67665 7.14706,0.21313 11.5518,-1.77611c4.83101,-2.18816 7.71541,-5.11519 10.21617,-7.54491c5.01573,-4.91627 10.62823,-9.19313 15.54449,-14.20886c5.51304,-5.6125 14.03835,-13.75418 26.84054,-24.2119c17.15009,-4.12057 38.43497,-7.63016 62.97367,-8.75266c23.91351,-1.09408 47.89807,1.94661 71.89684,5.10098l71.95367,10.17354c23.91351,3.58063 47.9407,7.7012 72.1526,9.90358c24.12665,2.44392 48.31013,4.8168 72.60728,5.78301c12.13437,0.53994 24.35399,0.53994 36.45994,0.35522c12.09174,-0.14209 24.18348,0.11367 36.30364,0.25576c48.45222,0.80991 96.96127,2.245 145.4419,1.36405c-48.49484,-0.24155 -96.89022,-2.79915 -145.35665,-4.74576c-24.25453,-1.19354 -48.5943,-0.02842 -72.66411,-1.30722c-24.14085,-1.16513 -48.21066,-3.70851 -72.30889,-6.35136c-24.06981,-2.37288 -47.84123,-6.64975 -71.84,-10.44351l-71.96788,-10.75611c-23.98456,-3.33908 -48.32434,-6.64975 -72.94829,-5.72617c-18.31522,0.56835 -36.58782,2.68547 -54.59044,6.23769c6.35136,-7.01918 12.84481,-14.27991 19.55139,-21.93848c9.00842,-10.38668 18.37206,-21.12858 28.2188,-32.02677l69.48133,-15.88551c25.22073,-5.55566 50.59775,-10.31563 76.04582,-14.53566c50.91035,-8.36902 102.34642,-13.71155 153.9388,-14.42199c25.77487,-0.34101 51.70604,0.24155 77.6088,-1.46351c25.87434,-1.57718 51.64921,-4.36212 77.23937,-8.38323c51.12348,-8.38323 101.40864,-21.19962 150.58551,-37.11354c-49.50367,14.90509 -99.95934,26.68424 -151.06861,33.9876c-25.53332,3.77956 -51.20873,6.42241 -76.9694,7.78646c-25.73225,1.50614 -51.53554,0.75307 -77.4525,0.90937c-51.83392,0.34101 -103.5826,5.35674 -154.73449,13.39896c-25.57595,4.06373 -51.08085,8.66741 -76.38684,14.05256l-60.84234,13.56946c6.26611,-6.77763 12.68851,-13.59788 19.48035,-20.43234c20.31867,-20.75915 42.47028,-42.08665 65.19025,-64.35193c15.47345,-15.11823 31.37316,-30.66272 47.42918,-46.36351c78.0919,-9.64782 155.62965,-23.65775 232.08753,-42.02981c39.10278,-9.43468 77.92139,-19.90661 116.39899,-31.55788c38.39234,-11.90703 76.42946,-24.93655 114.04032,-39.03174c-75.91794,26.27218 -153.17152,48.55168 -231.29184,66.90953c-74.085,17.19272 -149.09358,30.13699 -224.55684,39.18804c29.04291,-28.3893 58.71101,-57.37538 88.45016,-86.44671c23.75722,-23.16044 47.55706,-46.27826 71.05851,-69.02665z"/>
  </g>
 </g>
</svg>