<svg width="1000.0000000000001" height="1000.0000000000001" xmlns="http://www.w3.org/2000/svg" xml:space="preserve" version="1.1" fill="#000000">

 <g>
  <title>Layer 1</title>
  <path stroke="null" d="m544.53608,222.19953c-3.40817,-3.40599 -3.40817,-8.92928 0,-12.33527l65.72998,-65.73434c3.40817,-3.40817 8.92928,-3.40599 12.33527,0c3.40817,3.40599 3.40817,8.92928 0,12.33527l-65.72998,65.73434c-1.703,1.703 -3.93586,2.55558 -6.16873,2.55558c-2.23068,0 -4.46355,-0.85259 -6.16655,-2.55558zm10.41859,25.16335c0,4.8168 3.90533,8.72213 8.72213,8.72213l92.95829,0c4.8168,0 8.72213,-3.90533 8.72213,-8.72213s-3.90533,-8.72213 -8.72213,-8.72213l-92.95829,0c-4.8168,0 -8.72213,3.90533 -8.72213,8.72213zm55.31139,103.22642c1.703,1.703 3.93586,2.5534 6.16873,2.5534c2.23068,0 4.46355,-0.85259 6.16655,-2.5534c3.40817,-3.40599 3.40817,-8.92928 0,-12.33527l-65.72998,-65.72998c-3.40599,-3.40599 -8.9271,-3.40599 -12.33527,0c-3.40599,3.40599 -3.40599,8.92928 0,12.33527l65.72998,65.72998zm-90.89332,-138.81053c4.8168,0 8.72213,-3.90533 8.72213,-8.72213l0,-92.95829c0,-4.8168 -3.90533,-8.72213 -8.72213,-8.72213s-8.72213,3.90533 -8.72213,8.72213l0,92.95829c0,4.8168 3.90533,8.72213 8.72213,8.72213zm-37.49426,60.7431l-65.73434,65.73216c-3.40599,3.40599 -3.40599,8.92928 0,12.33527c1.703,1.703 3.93586,2.5534 6.16873,2.5534c2.23068,0 4.46355,-0.85259 6.16873,-2.5534l65.73434,-65.73216c3.40599,-3.40599 3.40599,-8.92928 0,-12.33527c-3.40817,-3.40381 -8.92928,-3.40599 -12.33745,0zm37.49426,10.42295c-4.8168,0 -8.72213,3.90533 -8.72213,8.72213l0,92.95829c0,4.8168 3.90533,8.72213 8.72213,8.72213s8.72213,-3.90533 8.72213,-8.72213l0,-92.95829c0,-4.8168 -3.90533,-8.72213 -8.72213,-8.72213zm-37.49426,-60.74528c1.703,1.703 3.93586,2.5534 6.16873,2.5534s4.46355,-0.85259 6.16873,-2.5534c3.40599,-3.40817 3.40599,-8.92928 0,-12.33527l-65.73434,-65.73434c-3.40599,-3.40381 -8.9271,-3.40599 -12.33527,0c-3.40599,3.40817 -3.40599,8.92928 0,12.33527l65.73216,65.73434zm36.41926,33.88548l2.15001,0c4.8168,0 8.72213,-3.90533 8.72213,-8.72213s-3.90533,-8.72213 -8.72213,-8.72213l-2.15001,0c-4.8168,0 -8.72213,3.90533 -8.72213,8.72213s3.90533,8.72213 8.72213,8.72213zm-34.50475,-8.72213c0,-4.8168 -3.90533,-8.72213 -8.72213,-8.72213l-92.95829,0c-4.8168,0 -8.72213,3.90533 -8.72213,8.72213s3.90533,8.72213 8.72213,8.72213l92.95829,0c4.8168,0 8.72213,-3.90533 8.72213,-8.72213zm432.07909,240.20094l-2.11294,0.42738c-4.72303,0.95507 -7.77578,5.556 -6.82071,10.27685c0.83732,4.13865 4.47445,6.99515 8.54115,6.99515c0.57348,0 1.1535,-0.05669 1.73788,-0.17444l2.11294,-0.42738c4.72303,-0.95507 7.77578,-5.556 6.82071,-10.27685c-0.95725,-4.71867 -5.556,-7.76924 -10.27903,-6.82071zm-37.18899,-26.14677l-2.1173,0.43175c-4.72085,0.9638 -7.76488,5.57126 -6.80108,10.28993c0.84387,4.13211 4.47881,6.97989 8.53679,6.97989c0.58002,0 1.16658,-0.05887 1.75533,-0.1788l2.1173,-0.43175c4.72085,-0.9638 7.76488,-5.57126 6.80108,-10.28993c-0.96598,-4.72085 -5.58434,-7.76706 -10.29211,-6.80108zm91.95524,92.53745c-12.61656,23.18997 -33.50825,40.08037 -58.82641,47.5596c-23.65224,6.98207 -47.88232,4.67288 -68.75438,-4.79717l-101.30537,129.62831l-0.77627,8.02l39.16891,-11.49577c5.7239,-1.67901 11.88172,0.40122 15.40982,5.20275c3.53246,4.80153 3.68074,11.29952 0.37287,16.26023l-100.66865,150.96482c-2.03226,3.0462 -5.1635,5.18967 -8.74176,5.97684l-152.97527,33.71758l0,48.49287c0,7.61442 -6.00519,13.82676 -13.53893,14.16038c-0.21369,0.00872 -4.22805,-0.4034 -5.25508,-0.75664l-180.25592,-58.3903c-4.15391,-1.34539 -7.45742,-4.53115 -8.95109,-8.63491l-30.08699,-82.64655l-83.6714,-27.09966c-4.15391,-1.34539 -7.45524,-4.53115 -8.95109,-8.63273l-27.14545,-74.54587l-83.66704,-27.09966c-4.15391,-1.34539 -7.45524,-4.53115 -8.95109,-8.63491l-64.91446,-178.2978c-1.85345,-5.08936 -0.64326,-10.79146 3.11816,-14.68807c3.7636,-3.89879 9.41118,-5.31396 14.56814,-3.64367l180.50886,58.46662c4.15391,1.34539 7.45524,4.53115 8.95109,8.63273l27.14327,74.54805l83.6714,27.10184c4.15391,1.34539 7.45742,4.53115 8.95109,8.63491l30.08699,82.64655l83.66922,27.09966c4.15391,1.34539 7.45742,4.53115 8.95109,8.63491l37.42666,102.79685l0,-348.57996c-21.22531,3.21629 -41.60238,13.63923 -59.60922,30.61686c-4.30873,4.06451 -10.68897,5.01959 -15.99857,2.39641c-5.3096,-2.621 -8.42994,-8.26858 -7.82375,-14.1582l4.57258,-44.46542c-21.82713,4.07324 -42.55528,9.5769 -61.8181,16.42159c-4.95417,1.76405 -10.47746,0.63454 -14.34791,-2.92846c-3.86826,-3.56081 -5.44697,-8.97289 -4.0994,-14.05789l26.83145,-101.21815c-14.68371,0.52987 -29.39358,-0.32272 -43.93555,-2.56649c-5.85473,-0.90274 -10.52979,-5.35103 -11.72254,-11.15342c-3.20102,-15.56464 -4.03835,-31.32553 -2.50543,-47.01228c-17.33742,-4.79717 -33.8266,-11.58953 -49.16229,-20.26151c-5.61051,-3.17268 -8.37325,-9.72736 -6.72694,-15.95932c3.79631,-14.36753 9.56818,-28.19865 17.21094,-41.27094c-12.81935,-9.63141 -24.19955,-20.59077 -33.93781,-32.70145c-4.17354,-5.18967 -4.17136,-12.58385 0.00436,-17.76916c10.30738,-12.80409 22.38971,-24.28895 36.0333,-34.26271c-7.99601,-13.81367 -13.89653,-28.45595 -17.60126,-43.68915c-1.51765,-6.24505 1.35411,-12.72777 6.99951,-15.80014c14.72296,-8.0091 30.47949,-14.3152 46.98176,-18.81582c-1.22328,-14.8974 -0.314,-29.85367 2.7213,-44.62024c1.19275,-5.8024 5.86781,-10.25068 11.72254,-11.15342c18.39497,-2.83687 37.02545,-3.45614 55.53599,-1.85999c5.65412,-15.34659 13.63487,-29.91909 23.80706,-43.44929c3.27298,-4.35234 8.7483,-6.44129 14.0906,-5.38592c17.49223,3.47795 34.3085,8.9271 50.13045,16.24061c11.53938,-11.88826 24.78175,-22.37881 39.48945,-31.2732c4.50716,-2.72567 10.16128,-2.72567 14.67062,0c15.47742,9.36103 29.30854,20.4643 41.23605,33.0874c16.65273,-7.62532 34.38918,-13.1835 52.87792,-16.56333c5.36411,-0.9856 10.83071,1.2102 14.03391,5.6345c9.38283,12.97199 16.78792,26.88161 22.09316,41.47591c17.62525,-1.31486 35.33771,-0.61927 52.8125,2.08241c5.85255,0.90492 10.52543,5.35103 11.71818,11.15124c3.19884,15.55156 4.03617,31.30809 2.50325,47.00574c17.34614,4.80371 33.83969,11.59607 49.17537,20.26151c5.61051,3.17049 8.37761,9.72736 6.7313,15.95714c-3.79195,14.36753 -9.56382,28.19865 -17.21094,41.27094c12.80845,9.62269 24.18647,20.58205 33.93563,32.70363c4.17354,5.18749 4.17354,12.57949 0,17.76698c-10.28557,12.791 -22.37445,24.27805 -36.04639,34.27143c8.0091,13.82894 13.91834,28.47558 17.6187,43.69788c1.51765,6.24505 -1.35629,12.72995 -7.00169,15.80014c-14.74476,8.01564 -30.49911,14.3261 -46.98612,18.82454c1.22546,14.9083 0.32054,29.8624 -2.70822,44.60934c-1.19275,5.8024 -5.86563,10.25068 -11.72036,11.15561c-15.27463,2.35934 -30.71498,3.18576 -46.103,2.49017l28.93349,101.02626c1.46096,5.10463 -0.05233,10.59739 -3.92278,14.23234c-3.87045,3.63495 -9.44825,4.80153 -14.45039,3.0244c-19.25192,-6.84469 -39.97789,-12.34836 -61.81374,-16.42159l4.56822,44.4676c0.60619,5.88962 -2.51415,11.5372 -7.82375,14.1582c-5.30742,2.621 -11.68766,1.67029 -15.99639,-2.39641c-18.00902,-16.97981 -38.38828,-27.40057 -59.61358,-30.61686l0,322.7908l64.40639,-95.22386l4.41558,-45.59058c0.32054,-3.31223 1.79676,-6.40641 4.16918,-8.73958l121.49056,-119.48883c4.25204,-4.18008 10.66499,-5.25072 16.04218,-2.68642c5.37937,2.56649 8.5804,8.22497 8.00474,14.1582l-5.2311,54.02488l72.23233,-92.42842c-13.82676,-11.9515 -24.49828,-27.85849 -30.04992,-46.6525c-15.43599,-52.26519 14.53107,-107.34544 66.79626,-122.78362c25.32035,-7.47923 52.03623,-4.6489 75.2262,7.96767c23.19215,12.61656 40.08255,33.51043 47.55742,58.82859c7.47269,25.31598 4.64235,52.03187 -7.97421,75.22184zm-580.96587,-156.54698c13.82458,-1.52419 15.61916,9.83856 15.77179,10.4164c3.59352,12.65581 9.06884,24.80792 16.31475,36.23391c16.15121,-3.71127 31.55885,-9.36539 45.91548,-16.85988c2.08023,-1.08591 4.32618,-1.60923 6.5525,-1.60923c4.09068,0 8.1094,1.77277 10.8765,5.08064c9.72081,11.62006 21.22312,21.92744 34.27143,30.71934c12.38106,-8.3449 23.39275,-18.07444 32.81048,-29.00108c4.30873,-4.99778 11.49359,-6.36279 17.33305,-3.29042c13.60216,7.15433 28.17902,12.66017 43.44275,16.41505c7.90007,-11.94278 13.84638,-24.7207 17.69502,-38.10045c2.2961,-7.98293 7.04312,-11.56118 15.91789,-10.3161c16.18827,2.26775 32.56189,2.47272 48.78288,0.78499c1.57871,-12.45738 1.32794,-25.03688 -0.75228,-37.51606c-1.24726,-7.48141 3.6175,-14.62047 11.03786,-16.19482c14.64228,-3.10944 28.69581,-7.79758 41.91638,-13.9794c-4.1561,-12.45302 -10.17437,-24.39144 -17.95887,-35.61028c-2.2067,-3.17922 -3.01786,-7.1238 -2.24377,-10.91357c0.77191,-3.79195 3.06365,-7.10199 6.33881,-9.1626c12.42686,-7.81721 23.52359,-16.92093 33.11139,-27.15199c-9.06884,-9.67284 -19.49178,-18.34482 -31.1053,-25.86984c-3.22719,-2.09113 -5.4666,-5.40554 -6.20362,-9.17786s0.09158,-7.68638 2.2961,-10.83943c7.39201,-10.56904 13.21403,-21.80533 17.38103,-33.52133c-13.78533,-6.7095 -28.53445,-11.77924 -43.98352,-15.11545c-7.48359,-1.61577 -12.33091,-8.87913 -10.95064,-16.40851c2.41167,-13.15951 2.78236,-26.43678 1.11207,-39.58975c-15.48396,-1.60923 -31.11402,-1.44133 -46.60671,0.5037c-6.96026,0.87221 -13.50186,-3.46705 -15.40546,-10.21143c-3.60006,-12.75176 -9.09718,-24.98454 -16.37798,-36.46941c-16.15775,3.71781 -31.55667,9.36757 -45.88931,16.85116c-5.90488,3.08327 -13.15951,1.6354 -17.43336,-3.47141c-9.69901,-11.59825 -21.19914,-21.89691 -34.26271,-30.69972c-12.40287,8.35798 -23.41456,18.08534 -32.81484,28.9989c-4.30655,4.99996 -11.49359,6.36716 -17.33523,3.29478c-13.5978,-7.15215 -28.1703,-12.65799 -43.43403,-16.41723c-7.94804,12.0191 -13.9118,24.87334 -17.7648,38.32286c-1.94285,6.77928 -8.57167,11.10545 -15.56246,10.13512c-16.29294,-2.24813 -32.75378,-2.52724 -49.06853,-0.83296c-1.58525,12.47701 -1.33885,25.0565 0.74356,37.52043c1.24945,7.48359 -3.61532,14.62483 -11.03786,16.19918c-14.65972,3.11162 -28.71107,7.79758 -41.91202,13.96631c4.15828,12.46611 10.16782,24.40234 17.94142,35.60592c2.2067,3.17922 3.01568,7.1238 2.24159,10.91575c-0.77409,3.79195 -3.06583,7.10199 -6.34099,9.1626c-12.40069,7.79758 -23.49306,16.89913 -33.09613,27.14545c9.05793,9.66194 19.48306,18.33174 31.1053,25.86548c3.22719,2.09113 5.46441,5.40554 6.20143,9.17786c0.73702,3.7745 -0.09158,7.6842 -2.29392,10.83725c-7.38983,10.57122 -13.21185,21.80751 -17.38321,33.52787c13.78315,6.71168 28.52573,11.77924 43.96608,15.10455c7.48795,1.61359 12.33963,8.88349 10.955,16.41505c-2.41385,13.14861 -2.78236,26.42588 -1.10989,39.59629c15.37494,1.59397 30.8807,1.232 46.29489,-0.46663zm-39.86232,516.25638l126.69113,41.03544l-253.13586,-241.1015c-3.48885,-3.32095 -3.62186,-8.84424 -0.30091,-12.33091c3.32313,-3.48885 8.84424,-3.62186 12.33091,-0.30091l254.16725,242.08492l-46.06157,-126.51451l-83.6714,-27.10184c-4.15391,-1.34539 -7.45742,-4.53115 -8.95109,-8.63491l-30.08699,-82.64655l-83.6714,-27.10184c-4.15391,-1.34539 -7.45524,-4.53115 -8.95109,-8.63273l-27.14327,-74.54805l-146.30502,-47.38516l52.61625,144.5148l83.66704,27.09966c4.15391,1.34539 7.45524,4.53115 8.95109,8.63273l27.14545,74.54587l83.66922,27.10184c4.15391,1.34539 7.45742,4.53115 8.95109,8.63491l30.08917,82.64873zm235.64145,-369.79654l-3.13561,-30.50347c-0.44701,-4.35016 1.13824,-8.66108 4.29565,-11.68547c3.15741,-3.02222 7.5272,-4.42648 11.85992,-3.7854c20.72378,3.04184 40.67348,7.26553 59.6005,12.60784l-16.4434,-57.41561c-3.37546,5.76533 -7.11508,11.37802 -11.20794,16.82063c-3.2708,4.34798 -8.74176,6.44129 -14.08406,5.38374c-17.49877,-3.47141 -34.3194,-8.92056 -50.14789,-16.23625c-11.55464,11.90135 -24.79484,22.39407 -39.48291,31.2732c-4.50716,2.72785 -10.1591,2.72567 -14.67062,0c-15.46216,-9.35449 -29.2911,-20.46212 -41.23823,-33.10921c-16.67453,7.63404 -34.42407,13.19658 -52.90408,16.56987c-5.36847,0.97688 -10.82853,-1.21238 -14.02737,-5.6345c-3.19884,-4.42212 -6.16873,-8.95109 -8.90311,-13.58036l-14.86905,56.09202c19.10583,-5.42298 39.25395,-9.70337 60.18488,-12.77356c4.32618,-0.63672 8.70469,0.76319 11.85992,3.78759c3.15741,3.0244 4.74266,7.33531 4.29565,11.68547l-3.13561,30.50129c20.61476,-12.32655 43.01319,-18.72641 66.0745,-18.72641s45.46193,6.40204 66.07886,18.7286zm42.38956,223.70303l83.82186,-24.60077l2.24595,-23.20087c0.01308,-0.18535 0.03271,-0.37069 0.05233,-0.55386l6.13602,-63.35538l-90.01239,88.53181l-2.24377,23.17906zm101.37515,-0.21151c-0.25076,0.08286 -0.50588,0.157 -0.76537,0.22459l-107.85569,31.65697l-69.57862,102.87317l123.82809,-27.29373l75.86509,-113.76929l-21.49351,6.30828zm222.20282,-280.59967c-5.3314,-18.05917 -17.37667,-32.95875 -33.91819,-41.95563c-16.53934,-8.99688 -35.59065,-11.01387 -53.64983,-5.68247c-37.27621,11.00951 -58.64761,50.29181 -47.64028,87.56801c11.01169,37.27621 50.29617,58.65415 87.57019,47.6381c18.05917,-5.33358 32.95875,-17.37885 41.95563,-33.91819s11.01605,-35.59284 5.68247,-53.64983z" id="XMLID_706_"/>
 </g>
</svg>