<svg width="1000" height="1000" xmlns="http://www.w3.org/2000/svg" xml:space="preserve" enable-background="new 0 0 100 100" version="1.1">

 <g>
  <title>Layer 1</title>
  <g stroke="null" id="svg_1">
   <g stroke="null" id="svg_2">
    <path stroke="null" id="svg_3" d="m838.49432,499.69199c-2.87029,-3.1794 0.56302,-5.54187 1.71114,-8.24657c1.89881,-4.41584 5.72955,-9.14078 3.20148,-13.76637c-2.96965,-5.36524 -8.93103,-1.98713 -13.58974,-2.25208c-1.75529,-0.09936 -3.57683,0.43054 -5.33212,0.76173c-2.78198,0.51886 -5.26588,-0.02208 -6.85559,-2.42871c-1.51242,-2.27416 -0.43054,-4.33856 0.86109,-6.44712c3.25668,-5.3542 6.32569,-10.8188 10.80776,-18.50235c-33.49412,15.01384 -66.3369,18.78938 -100.28363,17.75166c-33.39476,-1.0046 -66.83368,-0.22079 -100.26156,-0.22079c21.6376,-10.2889 44.39019,-9.84731 66.42521,-8.97519c35.26045,1.39099 69.8806,0.92733 104.41244,-7.70563c27.10219,-6.76727 35.27149,-20.78755 39.44445,-43.02128c-15.74246,0.12144 -16.93473,-5.96138 -7.9485,-17.6523c4.57039,-5.95034 7.03222,-13.51246 11.45909,-22.36621c-3.56579,1.07084 -4.55935,1.24747 -5.44252,1.66698c-44.52267,20.95314 -91.25325,37.03782 -133.33617,63.4114c-33.27332,20.83171 -72.15476,27.12427 -109.3913,37.2255c-36.94951,10.01291 -73.61199,22.0019 -112.74733,19.63943c-8.01474,-0.4747 -9.61548,5.37628 -10.7084,11.51429c-8.39009,47.48128 -16.32755,95.07295 -25.46833,142.41071c-2.56118,13.19231 3.42227,12.96048 12.49682,11.81236c49.07098,-6.20425 97.44646,-15.66518 145.09333,-29.0562c68.48962,-19.25304 136.46037,-39.59901 196.71445,-79.24218c21.79215,-14.32939 47.08385,-23.54745 65.14462,-44.71034c-6.19321,-1.97609 -11.90068,-1.47931 -17.63023,-0.34223c-3.09109,0.61822 -6.45816,1.33579 -8.77647,-1.25851z" clip-rule="evenodd" fill-rule="evenodd"/>
    <path stroke="null" id="svg_4" d="m834.32135,632.2885c-6.30361,-9.35053 -17.02305,-6.67895 -25.96512,-9.18494c-32.50055,-9.05246 -66.21546,-9.08558 -99.24591,-14.0534c-26.48398,-3.99633 -49.97622,10.7636 -75.00297,16.27236c-36.65144,8.06994 -72.44179,19.78295 -109.61209,26.11967c-24.66244,4.20608 -49.43528,7.16469 -74.2854,9.54925c-5.17757,0.49678 -8.6992,2.5943 -9.40573,8.33489c-2.41767,19.94854 -4.60351,39.94124 -7.61732,59.80146c-1.26955,8.34593 2.09752,10.10122 9.32845,10.71944c19.04329,1.62282 37.99827,4.02945 57.04156,5.86202c41.58614,3.98529 83.69113,6.07177 123.93044,-5.74059c51.03602,-14.98072 103.36368,-23.97799 154.68673,-37.44629c16.5925,-4.36064 33.80322,-6.29257 52.19518,-9.58236c-1.65594,-2.66054 -2.2852,-4.42688 -3.48851,-5.50876c-8.78751,-7.84915 -7.84915,-12.38642 4.25024,-14.16379c8.77647,-1.29163 16.1178,-3.98529 8.93103,-15.14632c-0.86109,-1.31371 -1.21435,-4.20608 -0.39743,-5.12237c8.51152,-9.65964 -1.20332,-14.5833 -5.34316,-20.71027z" clip-rule="evenodd" fill-rule="evenodd"/>
    <path stroke="null" id="svg_5" d="m438.3975,589.95168c0.4195,-1.29163 1.51242,-3.60995 1.87673,-6.03866c4.52623,-30.91085 8.5336,-61.91002 13.58974,-92.72152c2.26312,-13.79949 3.89698,-26.50606 -4.41584,-39.33406c-7.97058,-12.2981 -15.15736,-25.39106 -20.55572,-38.96975c-6.31465,-15.89701 -16.97889,-27.26779 -29.32115,-38.57233c-20.33492,-18.62379 -42.25955,-35.5254 -59.92289,-57.18508c-15.97429,-19.62839 -33.39476,-38.07555 -46.8741,-59.65794c-2.58326,-4.13985 -6.24841,-7.5842 -11.35974,-6.49128c-5.28796,1.13708 -4.41584,6.29257 -4.61455,10.31098c-0.24287,5.10029 -1.98713,7.17573 -7.34133,4.90158c-7.26405,-3.06901 -7.78291,1.90985 -6.42504,6.63479c2.90341,10.10122 -6.55752,18.42508 -1.6449,28.15095c-5.50876,0.9494 -7.28613,-2.14168 -9.759,-3.74242c-6.14905,-3.94113 -14.20795,-10.3441 -19.67255,-6.11593c-10.10122,7.82707 -16.09572,0.56302 -23.67992,-2.48391c-2.03128,-0.81693 -4.32752,-0.96044 -9.63756,-2.07544c47.65791,128.77682 128.94241,227.58115 239.75781,303.39001z" clip-rule="evenodd" fill-rule="evenodd"/>
    <path stroke="null" id="svg_6" d="m752.06537,267.39694c-67.48501,49.79959 -143.71338,78.83371 -225.04204,96.15483c-13.79949,2.93653 -28.17303,3.06901 -32.346,23.53641c-6.40296,31.42971 -15.20152,62.37368 -20.16933,95.20542c3.90801,0 6.92182,0.18767 9.91355,-0.03312c27.047,-2.0644 53.54201,-7.68355 79.60648,-14.80409c49.05994,-13.40206 99.51086,-23.05066 143.28284,-51.38929c28.55942,-18.49131 59.84562,-31.07645 91.52924,-43.12064c16.79122,-6.39192 32.346,-16.12884 49.44632,-24.8722c-2.52807,-1.94297 -3.2346,-2.71574 -4.10673,-3.13524c-7.55108,-3.58787 -20.8869,-1.65594 -15.73142,-17.26592c0.76173,-2.31831 -3.19044,-3.73138 -5.72955,-4.25024c-14.02028,-2.87029 -28.32759,-5.39836 -14.9476,-25.99823c-7.48484,-0.55198 -13.08191,-1.56762 -18.59067,-1.22539c-10.09019,0.65134 -12.73969,-4.60351 -10.27786,-12.86112c1.85465,-6.17113 0.85005,-13.50142 -3.15732,-15.1132c-7.13158,-2.89237 -16.40483,-6.21529 -23.67992,-0.82797z" clip-rule="evenodd" fill-rule="evenodd"/>
    <path stroke="null" id="svg_7" d="m434.42325,616.53501c2.08648,-10.54281 1.45723,-18.1822 -8.71024,-25.65601c-32.2356,-23.67992 -64.43809,-47.55855 -93.24038,-75.51079c-7.66148,-7.46276 -14.82617,-15.14632 -26.4067,-15.95221c-14.14171,-0.98252 -28.30551,-2.04232 -42.44722,-3.22356c-35.98906,-3.01381 -71.0508,-8.30177 -96.23211,-38.53921c-3.78658,-4.53727 -9.19598,-10.09019 -15.058,-5.19965c-6.21529,5.17757 1.18124,10.27786 3.57683,14.50602c5.00093,8.89791 13.32478,17.80686 -6.72311,15.37815c-1.79945,-0.22079 -3.79762,1.19228 -7.83811,2.58326c12.57409,12.64033 23.87863,24.15462 35.31565,35.53644c32.27976,32.03689 67.45189,61.10413 96.82824,96.11067c36.48584,43.4739 81.03059,77.12257 129.78142,105.65991c8.87583,5.19965 10.77464,2.1196 12.27602,-6.16009c6.07177,-33.22917 12.32018,-66.40313 18.8777,-99.53294z" clip-rule="evenodd" fill-rule="evenodd"/>
    <path stroke="null" id="svg_8" d="m403.88774,729.77912c-29.93937,-14.64954 -58.25592,-31.67258 -84.20999,-53.1777c-36.85015,-30.51343 -66.54665,-67.89348 -100.93497,-100.78042c-30.09392,-28.80229 -59.48131,-58.45463 -89.53107,-87.36731c-1.03772,-0.98252 -2.40663,-1.61178 -5.27692,-3.47747c0.50782,3.47747 0.39743,5.07821 0.98252,6.3588c6.96598,15.20152 14.02028,30.35887 21.06354,45.51623c1.77737,3.84178 4.20608,7.78291 -2.32935,9.56028c-5.15549,1.41307 -12.76177,1.54554 -13.28063,7.4186c-0.5299,5.95034 6.43608,9.24014 11.24934,12.52993c6.82247,4.66975 7.13158,9.89147 0.19871,13.79949c-11.00647,6.21529 -7.04326,10.13434 0.09936,16.7029c6.81143,6.28153 23.96695,9.80316 10.80776,25.32482c-0.4747,0.55198 1.26955,3.72034 2.62742,4.96782c4.17296,3.84178 8.57776,7.44068 13.05983,10.95127c7.07638,5.53083 9.8142,10.99543 1.52346,18.10493c-4.8795,4.184 -4.8795,9.54925 -0.0552,14.13068c6.72311,6.40296 13.55662,12.70657 20.59987,18.77834c5.57499,4.79118 5.64123,8.19138 -0.90525,12.41954c-4.38272,2.8151 -11.60261,7.76083 -5.44252,13.23647c28.64774,25.39106 61.4022,43.87133 99.5771,49.71127c31.61739,4.83534 63.61012,7.36341 95.48141,10.43241c30.09392,2.91445 30.02768,2.63846 31.80506,-28.89061c0.36431,-6.78935 1.26955,-12.14355 -7.1095,-16.25028z" clip-rule="evenodd" fill-rule="evenodd"/>
    <path stroke="null" id="svg_9" d="m784.46656,715.67053c-44.8097,6.0497 -88.07385,19.05433 -131.2276,31.47387c-46.21172,13.31375 -92.32409,15.31191 -139.33066,10.05707c-27.40026,-3.06901 -54.66805,-7.23093 -82.63133,-10.98439c-2.92549,16.44899 -5.59707,32.9311 -8.86479,49.29177c-1.33579,6.63479 0.23183,9.37261 7.23093,10.15642c48.30925,5.50876 86.79326,30.60174 122.56153,61.41324c12.62929,10.874 26.41774,20.30181 42.60178,25.78848c4.89054,-21.36161 4.91262,-21.81423 18.54651,-21.04146c8.88687,0.48574 11.08375,-4.20608 10.45449,-11.28246c-0.77277,-8.91999 2.79302,-12.66241 11.58053,-11.42598c8.01474,1.13708 12.86112,-1.12604 15.01384,-9.94667c1.88777,-7.61732 4.28336,-16.44899 15.83077,-14.90345c2.78198,0.36431 4.9347,-1.95401 5.50876,-4.66975c2.71574,-13.43518 10.53177,-20.29077 24.50789,-20.44532c3.86386,-0.04416 7.69459,-2.00921 11.56949,-3.10212c-3.90801,-11.63573 -3.73138,-10.80776 8.13618,-13.31375c7.92643,-1.66698 20.43428,0.62926 18.50235,-14.87033c-0.44158,-3.73138 4.83534,-4.7139 8.31281,-5.79578c4.89054,-1.5345 10.01291,-2.56118 14.59434,-4.75806c5.66331,-2.69366 11.66885,-5.57499 5.59707,-13.8878c-2.98069,-4.07361 1.65594,-5.44252 4.63663,-6.95494c9.89147,-5.05613 21.27329,-8.13618 27.59897,-20.86482c-4.3496,0.02208 -7.59524,-0.35327 -10.73048,0.06624z" clip-rule="evenodd" fill-rule="evenodd"/>
    <path stroke="null" id="svg_10" d="m559.39141,234.49896c-15.96325,6.98806 -21.39473,16.39379 -25.50145,30.2264c-2.50599,8.40113 -5.34316,16.69186 -8.0037,25.04883c-7.39653,23.44809 -14.79305,46.91826 -22.5318,71.43719c3.14628,0 5.00093,0.4195 6.5796,-0.06624c34.16753,-10.39929 68.64417,-19.87126 102.34804,-31.62843c48.78395,-17.00097 92.71048,-43.72782 135.798,-71.81253c10.24474,-6.67895 15.12424,-16.02948 17.63023,-29.06724c-14.36251,1.99817 -26.94764,3.24564 -21.86943,-16.51523c1.95401,-7.62836 -1.22539,-11.74612 -7.59524,-17.51983c-7.28613,-6.59064 -9.78108,-18.56859 -19.55111,-24.35334c-0.4747,-0.27599 -0.12144,-1.95401 -0.15455,-2.99173c-0.25391,-6.16009 -0.27599,-12.34226 -0.9494,-18.44715c-0.23183,-2.31831 -1.41307,-5.21069 -3.15732,-6.53544c-2.48391,-1.84361 -4.64767,0.82797 -6.73415,2.26312c-11.51429,7.97058 -20.42324,18.84458 -30.97709,27.78665c-33.94674,28.78021 -75.37832,44.72138 -115.3306,62.17497z" clip-rule="evenodd" fill-rule="evenodd"/>
    <path stroke="null" id="svg_11" d="m441.6321,421.05699c4.32752,11.51429 10.41033,22.36621 16.69186,35.66891c5.9393,-25.00467 11.2935,-47.26048 16.43795,-69.5715c2.41767,-10.41033 7.95954,-19.68359 2.00921,-31.78298c-31.51803,-63.98546 -48.53004,-131.84582 -51.17954,-203.23885c-0.50782,-13.21439 -1.5345,-26.42878 -2.52807,-43.55118c-4.09569,5.299 -6.14905,7.24197 -7.30821,9.5934c-4.49311,9.08558 -8.73232,17.40943 -20.83171,19.25304c-8.40113,1.29163 -15.87493,6.13801 -14.89241,17.29904c0.26495,3.04693 -1.74426,5.18861 -5.74059,3.22356c-11.90068,-5.86202 -17.14448,-2.00921 -16.54835,11.50325c1.56762,36.44169 13.43518,70.69753 22.90715,105.33977c14.02028,51.23474 42.39203,96.75097 60.98269,146.26353z" clip-rule="evenodd" fill-rule="evenodd"/>
    <path stroke="null" id="svg_12" d="m376.98426,781.53272c-35.53644,-4.50415 -72.01124,-1.61178 -106.71972,-12.37538c-17.22176,-5.33212 -33.70387,-12.9936 -50.61652,-19.28616c-8.37905,-3.11316 -15.1684,1.08188 -19.19785,7.65044c-4.3496,7.12054 2.57222,10.79672 7.40756,13.77741c12.24291,7.60628 24.94947,14.50602 37.29173,21.97982c3.78658,2.30727 6.92182,5.57499 1.07084,9.39469c-2.66054,1.74426 -7.60628,1.94297 -7.02118,6.10489c0.6403,4.33856 5.44252,4.86846 9.05246,6.14905c3.89698,1.37995 7.66148,3.13524 11.62469,4.2944c6.84455,2.00921 8.26865,4.91262 2.14168,9.68172c-5.27692,4.10673 -4.79118,7.4186 1.83257,8.52256c8.21345,1.35787 16.54835,1.94297 25.49041,2.93653c-1.23643,4.17296 -2.09752,7.15365 -2.78198,9.44989c20.05893,2.96965 37.20342,-5.90618 57.21819,-13.56766c-5.24381,10.29994 -15.73142,11.54741 -16.66978,22.57596c8.30177,-2.02024 15.74246,-3.46643 22.95131,-5.65227c13.66701,-4.12881 12.20979,3.44435 9.16286,12.11043c19.39656,-1.32475 19.51799,-1.31371 16.94577,18.95498c-4.09569,32.58887 -5.16653,65.36541 -6.34776,98.14195c-0.13248,3.52163 -0.88317,9.0635 4.15089,9.47197c4.83534,0.38639 4.4048,-4.94574 4.84638,-8.31281c4.80222,-35.53644 9.14078,-71.1612 14.32939,-106.66452c3.1794,-21.90255 8.94207,-43.33039 10.68632,-65.59724c2.61638,-33.39476 5.8289,-25.60081 -26.84828,-29.74066z" clip-rule="evenodd" fill-rule="evenodd"/>
    <path stroke="null" id="svg_13" d="m504.29281,284.60766c4.7139,-17.31008 15.09112,-33.80322 12.39746,-52.2835c-6.32569,-43.33039 -11.51429,-86.53935 -6.03866,-130.39964c0.89421,-6.9991 -0.13248,-16.83537 -7.09846,-19.01017c-8.03682,-2.50599 -9.30637,7.55108 -12.56305,13.03776c-0.5299,0.89421 -1.09292,1.76633 -1.51242,2.71574c-2.98069,6.77831 -6.54648,9.32845 -11.9338,1.96505c-2.87029,-3.8749 -6.40296,-4.43792 -7.95954,0.68445c-4.27232,14.20795 -11.43702,13.39102 -20.74339,4.74702c-2.32935,-2.16376 -4.94574,-4.02945 -10.35514,-8.36801c-6.07177,89.55315 11.27142,172.00785 45.7039,255.75418c7.46276,-25.43522 14.18587,-47.03969 20.10309,-68.84288z" clip-rule="evenodd" fill-rule="evenodd"/>
    <path stroke="null" id="svg_14" d="m580.95172,142.72685c-1.28059,0.60718 -2.53911,1.99817 -3.1242,3.32292c-11.44805,26.64957 -22.43245,53.47577 -32.08105,84.4639c12.94944,-6.74519 23.2273,-12.28706 33.64867,-17.48671c37.7002,-18.81146 75.14649,-38.05347 105.78135,-67.86036c7.61732,-7.4186 13.45726,-15.88597 14.32939,-28.54838c-18.09389,-0.54094 -29.92833,-7.45172 -23.69096,-31.55115c-32.37912,23.91175 -62.55032,42.56866 -94.8632,57.65978z" clip-rule="evenodd" fill-rule="evenodd"/>
    <path stroke="null" id="svg_15" d="m158.4335,441.63479c34.86302,25.8768 72.15476,45.74806 117.06381,46.91826c10.06811,0.25391 20.09205,2.2852 32.05897,3.73138c-13.24751,-16.12884 -24.91635,-30.46927 -36.73976,-44.66618c-6.53544,-7.84915 -9.77004,-17.83998 -21.84735,-21.5824c-30.98813,-9.5934 -66.16026,-9.71484 -89.72979,-37.32485c-0.51886,-0.61822 -1.85465,-0.54094 -3.54371,-0.98252c-0.85005,8.6992 3.33396,14.85929 6.39192,21.27329c3.35604,7.0543 1.75529,10.42137 -6.34776,9.78108c-3.55475,-0.27599 -6.95494,0.23183 -8.85375,3.52163c-1.95401,3.42227 -0.19871,6.68999 1.92089,9.29533c2.92549,3.58787 5.95034,7.30821 9.62652,10.03499z" clip-rule="evenodd" fill-rule="evenodd"/>
    <path stroke="null" id="svg_16" d="m352.8186,316.11465c18.00557,19.98166 38.84832,37.41317 57.17404,54.76741c-0.14351,-0.29807 -1.13708,-2.80406 -2.40663,-5.17757c-11.06167,-20.72131 -21.24017,-41.90628 -29.12244,-64.04066c-13.53454,-37.86579 -24.67348,-76.42708 -31.25308,-116.1696c-0.4747,-2.80406 -1.07084,-5.96138 -4.58143,-6.43608c-3.75346,-0.50782 -4.37168,2.7047 -5.54187,5.299c-1.57866,3.44435 -3.51059,9.60444 -5.299,9.60444c-17.91725,-0.02208 -14.0534,13.70013 -15.44439,23.76824c-0.70653,5.17757 -2.02024,7.73875 -7.74979,5.95034c-6.81143,-2.09752 -9.90251,0.83901 -10.82984,7.80499c-0.99356,7.4186 1.09292,13.53454 4.91262,19.73879c14.40666,23.42601 31.88234,44.6441 50.14182,64.89071z" clip-rule="evenodd" fill-rule="evenodd"/>
    <path stroke="null" id="svg_17" d="m867.11997,530.0619c2.73782,-5.38732 9.10766,-9.00831 8.94207,-18.57963c-53.3985,35.17213 -104.32412,71.17224 -164.03727,91.33053c37.47941,2.80406 73.99837,8.75439 110.56149,14.35147c13.47934,2.0644 26.84828,3.16836 26.38462,-17.19968c-0.06624,-2.72678 3.13524,-5.68539 5.18861,-8.24657c6.86662,-8.63296 11.90068,-16.94577 -0.6403,-25.21442c-3.37811,-2.21896 -5.24381,-5.51979 -2.39559,-9.95771c5.57499,-8.68816 11.32662,-17.29904 15.99637,-26.48398z" clip-rule="evenodd" fill-rule="evenodd"/>
    <path stroke="null" id="svg_18" d="m620.8488,8.13217c-4.52623,2.91445 -6.27049,3.41123 -6.9439,4.54831c-9.58236,16.39379 -31.50699,20.50052 -38.8704,39.22366c-1.25851,3.19044 -5.56395,3.22356 -8.41217,2.26312c-9.93563,-3.38915 -13.4683,1.94297 -15.56582,10.29994c-2.25208,9.04142 -7.5842,11.20518 -15.47751,6.01658c-4.8795,-3.19044 -7.07638,-1.43515 -8.94207,3.69826c-4.4048,12.15459 -5.08925,24.68452 -5.15549,37.41317c-0.17663,33.73699 -0.82797,67.47397 4.85742,104.84299c25.41314,-73.57887 62.39576,-137.89552 94.50993,-208.30602z" clip-rule="evenodd" fill-rule="evenodd"/>
    <path stroke="null" id="svg_19" d="m436.56493,813.32674c-9.95771,-2.83717 -17.11136,-2.73782 -18.04973,10.22266c-0.55198,7.4186 -2.72678,14.73785 -3.20148,22.15646c-0.73965,11.13895 11.48117,7.13158 15.94117,12.66241c1.68906,2.14168 4.66975,4.32752 8.19138,3.03589c0.60718,-0.22079 1.34683,-1.0598 1.40203,-1.67802c1.36891,-12.91632 7.69459,-5.70747 12.33122,-2.8151c8.68816,5.45356 19.02121,17.71854 25.1813,15.81973c13.40206,-4.11777 14.81513,6.28153 20.8869,10.82984c4.8795,3.6541 8.96415,8.33489 13.63389,12.76177c3.83074,-4.09569 7.4738,-6.09385 11.49221,-1.56762c5.64123,6.33672 10.31098,7.72771 19.74983,3.95217c9.62652,-3.8749 22.01294,-0.86109 37.32485,-0.86109c-13.50142,-9.40573 -23.80136,-15.41127 -32.73238,-22.99547c-33.20709,-28.22823 -70.01308,-49.5788 -112.15119,-61.52363z" clip-rule="evenodd" fill-rule="evenodd"/>
    <path stroke="null" id="svg_20" d="m170.67641,383.47823c20.40116,24.38645 50.88147,24.91635 81.18514,36.26505c-26.21903,-40.79128 -44.8097,-81.63777 -65.03422,-124.8136c-6.48024,18.17116 -6.48024,18.17116 -20.21349,31.62843c-0.5299,0.51886 -1.26955,1.31371 -1.21435,1.89881c1.40203,10.8188 2.55015,21.53824 -6.18217,30.30367c-0.35327,0.35327 -0.03312,1.51242 0.14351,2.26312c2.02024,8.35697 5.57499,15.59894 11.31558,22.45453z" clip-rule="evenodd" fill-rule="evenodd"/>
    <path stroke="null" id="svg_21" d="m651.79277,88.88677c6.36984,-3.7645 4.22816,-10.06811 3.80866,-15.44439c-0.40846,-5.51979 -5.00093,-2.6495 -7.93747,-2.90341c-4.9347,-0.4195 -6.23737,-4.13985 -5.32108,-7.70563c3.53267,-13.89884 -0.79485,-23.62472 -14.70473,-28.96788c-13.37998,29.87313 -26.9366,60.16576 -42.11604,94.06835c24.19878,-14.25211 45.26232,-26.60541 66.27066,-39.04703z" clip-rule="evenodd" fill-rule="evenodd"/>
   </g>
  </g>
 </g>
</svg>