<svg width="1000" height="1000" xmlns="http://www.w3.org/2000/svg">
 <g>
  <title>Layer 1</title>
  <g stroke="null" id="svg_7">
   <path stroke="null" d="m494.17341,793.16843c0.98132,-0.36799 1.83997,-0.85865 2.82129,-0.98132c0.61332,0 1.10398,0 1.7173,0c2.20796,0 4.29326,0.73599 6.2559,1.83997c9.32251,-14.71975 29.19418,-43.30061 60.84165,-72.00413c40.234,-36.67672 110.15283,-76.17473 181.05298,-87.09188c0,0 1.34931,-16.55972 -28.82619,-26.61822c0,0 20.36233,-39.74334 87.33721,-66.2389c0,0 4.90658,-29.19418 -44.64992,-30.91149c0,0 49.18851,-53.84977 31.40214,-114.81409c0,0 -74.58009,20.60766 -101.68897,80.59066c0,0 -11.16248,-33.85544 -26.61822,-48.82052c0,0 -36.79939,55.68974 -35.94073,83.9026c0,0 -17.41838,-24.41026 -32.01547,-37.41271c0,0 -13.00245,68.3242 -15.57841,99.23568c-2.94395,36.18606 -21.34364,52.99112 -21.34364,52.99112c0,0 -79.48668,-187.30888 132.84579,-317.08805c0,0 -37.65804,-29.68484 -76.42006,-29.68484c-2.94395,0 -6.01057,0.12266 -8.95452,0.61332c0,0 50.78315,-57.40704 36.79939,-103.40628c0,0 -3.92527,-0.36799 -10.18116,-0.36799c-16.19173,0 -48.08453,2.0853 -67.46554,17.05038c0,0 41.70597,-60.35099 36.79939,-90.40383c0,0 -16.43706,-4.90658 -31.64747,-4.90658c-7.60521,0 -14.96508,1.22665 -19.749,4.90658c0,0 -6.13323,-48.32986 -51.39648,-94.20643c-45.26325,45.87657 -51.39648,94.20643 -51.39648,94.20643c-4.90658,-3.67994 -12.1438,-4.90658 -19.749,-4.90658c-15.21041,0 -31.64747,4.90658 -31.64747,4.90658c-4.90658,30.05283 36.79939,90.40383 36.79939,90.40383c-19.38101,-14.96508 -51.27381,-17.05038 -67.46554,-17.05038c-6.2559,0 -10.18116,0.36799 -10.18116,0.36799c-13.8611,45.87657 36.79939,103.40628 36.79939,103.40628c-2.94395,-0.36799 -6.01057,-0.61332 -8.95452,-0.61332c-38.76202,0 -76.42006,29.68484 -76.42006,29.68484c212.45513,129.90184 132.84579,317.08805 132.84579,317.08805c0,0 -18.39969,-16.80505 -21.34364,-52.99112c-2.45329,-30.91149 -15.57841,-99.23568 -15.57841,-99.23568c-14.59709,13.00245 -32.01547,37.41271 -32.01547,37.41271c0.98132,-28.21286 -35.94073,-83.9026 -35.94073,-83.9026c-15.57841,14.96508 -26.61822,48.82052 -26.61822,48.82052c-27.10888,-60.10567 -101.68897,-80.59066 -101.68897,-80.59066c-17.78637,60.96432 31.40214,114.81409 31.40214,114.81409c-49.43384,1.7173 -44.64992,30.91149 -44.64992,30.91149c66.97488,26.49556 87.33721,66.2389 87.33721,66.2389c-30.05283,10.0585 -28.82619,26.61822 -28.82619,26.61822c70.90015,10.91715 140.81899,50.41516 181.05298,87.09188c31.03415,28.21286 50.78315,56.30306 60.35099,71.26815l0.49066,-0.12266z" id="svg_1"/>
   <path stroke="null" d="m516.98903,950.17915c-1.83997,-4.41593 -0.85865,-9.32251 2.20796,-12.87979c-0.73599,-59.12435 -20.48499,-132.96845 -20.48499,-132.96845c0,0 1.96263,159.21868 -38.76202,186.32756l51.27381,0c4.53859,-9.81317 6.86922,-22.81562 7.72787,-37.41271c-0.73599,-0.85865 -1.34931,-1.83997 -1.83997,-3.06662l-0.12266,0z" id="svg_2"/>
   <path stroke="null" d="m937.72869,728.03352c-49.43384,0 -91.50781,32.50613 -104.26493,43.54594c26.74089,-26.37289 20.23966,-77.52404 20.23966,-77.52404c0,0 -58.51103,17.29571 -94.45176,46.24456c-29.56217,23.79694 -66.72956,70.16416 -66.72956,70.16416c11.7758,-49.06585 -20.97565,-87.82787 -20.97565,-87.82787c0,0 -59.61501,68.56952 -64.39893,122.29663c-4.78392,52.25513 -74.58009,97.7637 -78.62802,100.33966c2.69862,-0.61332 30.1755,-7.72787 60.96432,-7.72787c23.06095,0 48.08453,4.04793 65.74824,17.66371c42.56462,32.87412 133.09112,35.32741 133.09112,35.32741c0,0 -6.13323,-50.53782 -49.9245,-75.07075c0,0 19.749,1.34931 43.66861,1.34931c17.41838,0 37.04472,-0.73599 52.86845,-3.06662c45.63124,-6.86922 97.88637,-38.39403 97.88637,-38.39403c0,0 -31.27948,-37.65804 -67.46554,-37.65804c-0.85865,0 -1.83997,0 -2.69862,0c23.06095,-2.94395 108.92619,-18.64502 128.06187,-95.92374c-17.90903,-9.81317 -35.69541,-13.73844 -52.74579,-13.73844l-0.24533,0z" id="svg_3"/>
   <path stroke="null" d="m392.6071,845.05557c-4.78392,-53.7271 -64.39893,-122.29663 -64.39893,-122.29663c0,0 -32.75145,38.76202 -20.97565,87.82787c0,0 -37.16738,-46.24456 -66.72956,-70.16416c-35.94073,-29.07152 -94.45176,-46.24456 -94.45176,-46.24456c0,0 -6.50123,51.15115 20.23966,77.52404c-12.75712,-11.03982 -54.83109,-43.54594 -104.26493,-43.54594c-17.05038,0 -34.83675,3.8026 -52.74579,13.73844c19.13568,77.27871 105.00092,92.97978 128.06187,95.92374c-0.85865,0 -1.83997,0 -2.69862,0c-36.0634,0 -67.46554,37.65804 -67.46554,37.65804c0,0 52.25513,31.52481 97.88637,38.39403c15.70107,2.33063 35.45008,3.06662 52.86845,3.06662c23.9196,0 43.66861,-1.34931 43.66861,-1.34931c-43.79127,24.53292 -49.9245,75.07075 -49.9245,75.07075c0,0 90.52649,-2.45329 133.09112,-35.32741c17.66371,-13.73844 42.68729,-17.66371 65.74824,-17.66371c30.78882,0 58.2657,7.11455 60.96432,7.72787c-4.04793,-2.57596 -73.96677,-48.2072 -78.62802,-100.33966l-0.24533,0z" id="svg_4"/>
  </g>
 </g>

</svg>