<svg width="999.9999999999999" height="999.9999999999999" xmlns="http://www.w3.org/2000/svg" xml:space="preserve" version="1.1" fill="#000000">

 <g>
  <title>Layer 1</title>
  <g stroke="null" id="XMLID_10_">
   <path stroke="null" d="m996.56328,284.75922c0,-72.01084 -53.70894,-131.71227 -123.17152,-141.14684c-13.62222,-61.11307 -68.2787,-106.94303 -133.43546,-106.94303c-46.70445,0 -88.86029,23.17926 -113.79712,60.89606c-7.64907,-1.26339 -15.40772,-1.89938 -23.23942,-1.89938c-11.1019,0 -21.89439,1.3171 -32.27005,3.73214c1.89508,3.94056 3.71281,7.93054 5.38443,12.00217c33.48402,10.34988 64.28013,28.29082 90.05921,52.57232c4.47127,4.20914 8.80717,8.58802 12.9626,13.17531c38.5655,42.57052 59.80671,97.60945 59.80671,154.97533c0,21.0328 -2.92856,41.73041 -8.47844,61.57932c-12.32231,44.06595 -37.59003,83.9464 -72.58238,113.97545c-1.26124,23.78302 -6.27181,46.57768 -14.38068,67.85757l0,253.68702c0,17.79913 14.4301,32.22923 32.22923,32.22923l79.63198,0c17.79913,0 32.22923,-14.4301 32.22923,-32.22923l0,-154.27488l75.75373,-43.77804c15.40987,-8.90601 20.68472,-28.61956 11.77656,-44.03157c-8.90816,-15.40987 -28.62171,-20.67827 -44.03157,-11.77656l-43.49872,25.1388l0,-43.99935c1.70385,0.06231 3.41415,0.09669 5.12874,0.09669c75.90843,0 137.66608,-61.7555 137.66608,-137.66393c0,-4.50565 -0.21916,-8.99196 -0.65318,-13.45033c40.87311,-25.73182 66.91003,-71.39204 66.91003,-120.72425z" id="XMLID_13_"/>
   <path stroke="null" d="m674.3999,332.12329c0,-85.88016 -65.33939,-156.78231 -148.92053,-165.60453c-14.02186,-73.73618 -78.96376,-129.65175 -156.71786,-129.65175c-56.08101,0 -106.5348,28.63245 -135.27253,74.92222c-10.4036,-2.01755 -20.99842,-3.03599 -31.70927,-3.03599c-91.82537,0 -166.53273,74.70521 -166.53273,166.53058c0,16.53574 2.36777,32.65251 7.0582,48.16121c-24.68544,24.44265 -38.86845,57.81709 -38.86845,93.34659c0,71.34907 57.11449,129.61092 128.0231,131.47163c14.33126,56.75353 65.65739,98.93729 126.71459,99.3133l0,41.00418l-131.33197,-43.9929c-5.56921,-1.865 -11.28238,-2.0949 -16.64962,-0.99696c-10.90207,2.22597 -20.36028,10.01255 -24.14829,21.32071c-5.65301,16.87737 3.44638,35.14275 20.32375,40.79791l87.34766,29.25984l64.45846,21.59144l0,174.54062c0,17.79913 14.4301,32.22923 32.22923,32.22923l97.03147,0c17.79913,0 32.22923,-14.4301 32.22923,-32.22923l0,-91.39565l64.45846,-88.58741l8.90386,-12.23636c6.0462,-8.31084 7.51586,-18.5361 4.93107,-27.71714c-1.89293,-6.71872 -5.94737,-12.88095 -12.02795,-17.30495c-14.39357,-10.47235 -34.55188,-7.2967 -45.02209,7.09903l-21.24121,29.19324l0,-74.39151c4.39822,0.35667 8.82866,0.55864 13.29133,0.55864c88.61319,0 160.70569,-72.09249 160.70569,-160.70569c0,-6.72946 -0.41683,-13.4267 -1.24405,-20.05732c49.94027,-29.61007 81.98042,-84.2601 81.98042,-143.43297z" id="XMLID_504_"/>
  </g>
 </g>
</svg>