<svg width="1000" height="1000" xmlns="http://www.w3.org/2000/svg" xml:space="preserve" version="1.1">

 <g>
  <title>Layer 1</title>
  <g id="svg_1">
   <path id="svg_2" d="m753.20292,966.11774c65.52295,0.55877 131.13361,-4.18634 196.34204,-10.06092c-12.75122,-4.06756 -27.99334,-2.70697 -41.23718,-3.16955c-14.55127,-0.50824 -29.10559,-0.93109 -43.6615,-1.2804c-28.45007,-0.6828 -56.906,-1.09088 -85.36291,-1.33264c-28.06794,-0.23846 -56.27686,0.42609 -84.27924,-1.83166c-24.38824,-1.96637 -53.24066,-4.7594 -73.56726,-19.78193c3.85278,-0.78949 8.09485,2.55488 11.72662,3.99207c5.46192,2.16125 11.07953,3.94318 16.76294,5.42175c10.21186,2.65662 20.66278,4.29004 31.13874,5.47174c23.55072,2.65638 47.35833,3.69947 71.04168,4.2342c48.81055,1.10199 97.37397,-1.56946 145.96839,-5.88849c-63.14606,-5.36054 -126.7583,-5.18744 -190.05487,-7.76471c-25.92176,-1.05554 -52.16724,-2.79865 -75.56226,-15.22174c-18.10681,-9.61493 -31.72363,-25.19843 -41.53888,-42.97217c-24.4295,-44.23743 -38.93793,-96.39215 -45.79431,-146.22034c-6.33429,-46.03491 -2.47418,-92.65747 19.28815,-134.37396c21.12915,-40.50281 56.28802,-75.66718 97.94439,-94.76846c8.32318,19.72061 6.95539,40.9573 11.0354,61.17501c3.19153,-16.02172 8.40039,-31.70965 5.95844,-48.38562c6.88312,28.61927 6.52289,58.2334 12.47021,88.534c7.89606,-46.56274 12.79395,-73.66803 -16.26947,-110.47281c4.82972,-0.04757 8.90052,-2.27572 13.573,-1.49603c7.72931,11.08124 13.65961,23.13058 19.98084,34.94339c-1.6225,-12.05316 -5.30463,-23.44772 -9.61036,-34.73081c10.33582,-2.96408 27.37354,4.62491 37.04651,8.3733c11.11774,4.30835 21.47632,10.33804 29.50879,19.27932c19.13715,21.30243 22.27973,49.84418 27.37268,76.78101c7.00653,-46.24823 -9.48547,-83.90396 -41.64459,-97.14142c1.82794,1.98749 3.53735,3.84628 5.5191,6.00092c-4.45458,0.5469 -11.445,-5.10068 -15.17474,-7.07041c-5.16986,-2.73022 -10.40399,-5.33862 -15.79254,-7.612c-5.37726,-2.26864 -10.87915,-4.21386 -16.54669,-5.62073c-4.69879,-1.16641 -10.28424,-1.19204 -14.57965,-3.5773c-8.64576,-4.80114 -13.8324,-14.03814 -23.20179,-18.63092c-8.83477,-4.33065 -18.70904,-6.14288 -28.49407,-6.32913c12.63519,7.219 25.80761,13.51886 36.32025,25.06708c-5.95337,0.91992 -11.07264,1.71094 -15.90601,2.45785c-8.34918,-4.74865 -16.08514,-9.81823 -26.42993,-12.47116c6.79065,5.84143 14.09924,9.29218 18.01263,16.95523c-9.98388,2.75098 -19.52087,6.82395 -28.97619,10.99653c-6.46155,2.85147 -14.90729,8.97222 -22.08942,5.13687c13.82715,-33.09439 18.90747,-68.254 25.82666,-102.98792c3.53626,9.16214 2.74658,18.64301 4.44257,29.72717c3.70996,-13.97451 4.44848,-26.13784 1.79718,-38.02133c10.08996,-12.06253 24.34289,-24.18124 40.76342,-25.08618c20.05011,-1.10486 21.3147,15.53925 26.7118,31.19675c0.24237,-0.09815 0.48468,-0.19629 0.72699,-0.29434c0,-8.08561 0,-16.17121 0,-24.31989c10.37341,1.75879 20.26898,3.52936 30.54235,2.26666c-10.39282,-5.34204 -22.41986,-6.34634 -32.50585,-12.69909c-2.57508,-26.93406 -13.61847,-49.99497 -30.88678,-70.30381c2.96234,22.18973 12.74444,42.40418 18.69616,64.69794c-6.44409,-2.39783 -12.06378,-2.97452 -17.80615,-3.28216c-10.1225,-32.75605 -3.57764,-68.31519 -18.32428,-100.13202c-0.6308,5.0206 -1.26166,10.04129 -1.96942,15.67398c-8.36218,-4.87043 -16.10352,-9.37924 -24.04688,-14.00574c-0.82855,-24.60158 7.41913,-49.7301 -4.37518,-75.27766c-4.83594,24.48295 -6.35254,47.59523 -6.91241,70.95936c-2.96222,-0.60547 -5.28003,-1.03836 -7.42401,-3.26344c-0.89966,-35.31101 10.7185,-70.49928 1.72589,-105.56772c-7.10401,-27.70345 -25.84864,-49.10207 -49.8396,-63.93551c15.37237,22.0576 21.39325,44.95982 22.17303,69.42117c-6.44952,-19.72227 -7.5943,-39.46431 -21.0473,-56.38749c-14.5365,-18.28611 -34.41296,-26.03956 -56.51526,-16.60932c24.15228,-3.10614 44.25757,15.03633 45.65045,41.82221c-15.77221,-15.49408 -35.12701,-21.6749 -56.34305,-23.17702c16.85379,4.94338 32.31266,13.66198 45.70456,24.97295c6.52008,5.50692 13.33857,10.60761 14.56275,19.42881c1.22442,8.8231 1.591,17.5215 3.59393,26.27357c1.36816,-9.4026 2.49847,-17.17052 3.77948,-25.9741c11.09503,10.474 8.30206,24.35606 13.22485,36.02061c-3.26251,0.1703 -2.7799,-3.4891 -5.52374,-2.73729c2.33368,25.63881 0.11652,51.83734 11.13062,76.59389c-13.10828,3.79832 -24.99054,7.59247 -35.98688,17.41525c13.00494,-36.98212 24.78808,-75.40675 6.42615,-112.791c-14.91834,-30.3732 -43.79062,-60.85926 -80.51361,-53.10067c40.97155,3.88226 42.56836,57.15803 40.24346,88.41358c8.42078,-17.2697 11.39881,-35.51625 10.05451,-54.62494c11.68817,26.86075 13.61609,54.91631 10.54169,83.69535c6.94506,-15.0598 10.15063,-30.74868 10.58374,-47.08171c4.14874,28.39041 -0.86921,54.50883 -4.42456,82.68171c-1.54578,12.24851 -3.53852,24.03037 -10.18341,34.66934c-6.71405,10.74961 -8.03925,21.97455 -10.43586,34.378c-1.92956,-14.55951 -5.03088,-31.02372 -12.98147,-43.60593c-3.95059,-6.25192 -8.97336,-10.80423 -14.77881,-15.26853c-3.14963,-2.42196 -16.09711,-11.70002 -12.03879,-16.6074c3.02899,0.2232 3.98291,3.76137 7.4165,4.39351c-2.17565,-2.71794 -4.02545,-5.0288 -5.73355,-7.16263c5.80137,-15.6873 14.82502,-35.25957 8.96579,-52.19983c-2.97165,-8.59187 -9.79089,-14.88138 -10.6831,-24.36067c-0.63291,-6.72537 4.712,-13.44071 3.85831,-19.22905c-2.44709,0.25519 -1.24302,3.54793 -3.53016,3.80067c-9.44,-24.81676 -12.63739,-30.17439 -21.04449,-35.2865c6.17828,10.11187 11.22632,22.38085 11.94022,34.33843c0.17022,2.85077 0.66769,9.09416 -2.04657,11.29179c-3.42374,2.77207 -4.42316,-1.31579 -7.48581,0.24037c0.88803,2.28339 1.72186,4.53252 0.90521,7.46671c-4.17554,4.51196 -9.4747,8.27838 -15.90912,12.5388c2.72806,-13.58781 10.72702,-23.81865 14.37369,-35.75165c-13.0762,12.62702 -23.59738,26.78536 -28.69608,44.48412c-5.4208,2.15546 -10.66574,4.241 -15.34686,6.10229c-5.16065,-31.76533 12.30975,-49.12664 39.6734,-60.11477c-11.30041,-1.86444 -20.92615,0.55029 -30.62613,5.30009c4.00165,-11.19539 10.7305,-19.38993 18.54434,-26.79493c-44.68316,22.65626 -53.94137,62.23614 -50.78015,107.80282c-4.52765,0.81073 -8.55545,1.53203 -13.07648,2.34152c2.83362,-27.08123 8.66623,-52.6526 18.55405,-79.12611c-24.70251,18.91328 -27.85153,53.9066 -26.71466,82.52641c-7.14111,5.38411 -14.60162,9.48732 -20.45114,16.72446c7.71185,-0.9113 13.59582,-5.52994 20.86319,-6.10298c0.54474,6.613 1.04153,12.64331 1.53821,18.6736c0.2864,-0.01081 0.57272,-0.0217 0.8591,-0.0326c1.00534,-6.73024 2.01068,-13.46048 3.0101,-20.15115c5.9346,-1.74293 11.27514,-3.31148 16.91681,-4.9684c1.50796,13.88407 3.40176,26.99983 4.05945,40.30318c4.17126,-14.68894 4.57611,-29.82193 5.23977,-45.05899c5.60916,-3.84174 3.52921,-0.92037 1.09302,-6.19319c-1.92123,-4.15837 -1.69962,-9.46588 0.35544,-13.82967c2.78155,10.40384 5.08978,19.03722 7.57181,28.32085c2.02941,-2.79917 0.25702,-6.06673 1.88037,-8.78336c1.48184,-2.47984 5.10775,-2.18255 5.90201,-5.51556c-2.22361,-0.91948 -3.87955,1.84178 -6.07291,-0.29553c-1.27927,-4.45697 -1.18802,-9.34588 -0.54193,-14.51882c5.08682,-3.16942 10.47583,-5.41411 16.62475,-6.94823c0.14597,17.35199 4.14606,33.48317 11.4925,48.87938c-0.80487,-18.71483 -4.72174,-37.37945 0.43795,-56.01672c8.8816,-5.49245 17.25367,-11.47072 24.5384,-19.26688c2.2535,8.1169 2.6723,16.54065 1.10803,24.81835c-1.45221,7.68432 -5.48758,14.54645 -6.76059,22.22023c-2.67124,16.10269 6.15832,31.11175 7.67624,46.85458c3.93557,-3.41632 2.03543,-7.95383 4.97711,-10.21011c9.74591,8.15759 19.37939,17.08755 25.51321,28.38562c7.03922,12.9657 8.09485,28.86181 8.98487,43.32886c0.97561,15.85867 0.02737,31.94192 -2.78583,47.57702c-1.67471,9.30777 -3.26914,31.66318 -15.23499,33.97315c-10.94125,-3.168 -20.19497,-18.888 -26.53851,-27.48328c-8.63208,-11.69601 -16.80072,-23.73901 -25.134,-35.64795c-16.32608,-23.33127 -32.69748,-47.39783 -52.53015,-67.94107c-32.22449,-33.37877 -90.17371,-62.92696 -136.52584,-41.97884c24.38927,-2.2806 47.84615,0.5971 71.44701,10.87587c-22.98902,11.13779 -31.12579,31.32007 -37.42322,52.45642c-28.68071,-1.05953 -43.56131,17.54834 -56.98204,39.10288c4.85648,-35.11707 14.88617,-67.91293 33.28514,-99.32163c-13.53691,5.86208 -24.30673,24.17487 -30.5665,36.93619c-2.75064,5.60752 -3.93586,14.52353 -8.6426,18.48423c-2.95415,2.48574 -8.95438,3.80844 -12.45855,5.85177c-4.30505,2.51044 -8.39822,5.38971 -12.51301,8.19431c9.30464,-24.97443 22.34991,-45.41791 40.79072,-62.38083c-18.48875,9.35684 -33.76913,23.97186 -42.34227,42.98626c-4.458,9.88718 -5.43092,20.8429 -9.79864,30.66657c-4.6582,10.47705 -12.73944,18.08792 -15.41565,29.68249c5.38614,-5.18402 10.77226,-10.36813 16.15848,-15.55215c0.58838,-0.03842 1.17677,-0.07678 1.76516,-0.1152c-5.0783,32.10516 -12.11602,64.08853 -7.86108,97.81704c7.4395,-24.06625 12.25363,-47.64447 14.23285,-71.84869c0.83398,10.1796 1.66798,20.35928 2.52106,30.7727c4.42924,-4.50469 3.25753,-17.10357 3.89489,-22.96539c0.94085,-8.65219 1.88962,-17.30423 3.03415,-25.93237c1.99979,-15.07529 5.64342,-29.12338 17.52787,-39.54221c-4.5436,25.15763 -3.57958,49.13788 1.23768,73.02817c1.94576,-14.41849 -0.05586,-28.61673 12.3591,-38.32806c11.78867,-9.22132 25.00163,-16.72968 38.14739,-23.79895c13.89279,-7.47098 18.51944,-18.26746 27.79611,-30.41025c8.66507,-11.34244 18.82742,-23.509 31.108,-31.05414c8.98172,4.17789 12.37643,6.45624 15.28751,10.14639c-17.76953,8.91324 -22.17917,24.35294 -28.05198,42.09378c-6.65493,20.10331 -15.07025,39.98673 -30.58612,54.93747c6.01487,1.64438 15.69855,-12.58499 18.63831,-16.61743c5.6232,-7.71316 10.02701,-16.23874 14.19226,-24.80203c4.93289,-10.14151 9.41,-20.4982 14.37665,-30.6236c3.337,-6.80301 7.69522,-20.36248 15.09744,-23.71554c17.035,12.37295 30.75842,28.2323 43.84171,44.94455c-13.58496,14.99215 -29.10596,29.43429 -39.39197,47.00763c-8.55643,14.61825 -13.62879,30.98373 -15.62659,47.76962c-2.19412,18.43707 -0.29831,36.78952 6.4335,54.15039c3.32734,8.58081 7.67011,16.74283 12.66004,24.46664c3.9321,6.08643 13.34762,13.72773 14.1029,21.0839c-4.08917,7.59179 -22.82327,2.21899 -29.89593,2.2984c-12.6218,0.14163 -25.22421,2.00247 -37.21823,5.99078c1.87036,-26.86081 0.1141,-62.34445 21.12512,-82.57831c-28.19388,11.75717 -52.39227,37.47873 -56.70358,68.58683c-2.16025,15.58682 6.05243,35.84182 -2.82428,49.46243c-9.11325,13.98358 -21.53876,27.92309 -23.91837,45.09057c3.16905,-4.34405 5.76891,-7.90783 8.3569,-11.45532c0.05596,0.00208 0.10207,0.0083 0.15575,0.01135c0.00427,-0.08575 0.01874,-0.16693 0.0211,-0.25372c0,0 -0.23175,0.23883 -0.23262,0.23828c10.87963,-13.52594 21.76012,-27.05133 32.54137,-40.45324c2.34134,1.25885 0.65469,3.88531 3.12878,4.62487c0,-2.70031 0,-5.27752 0,-7.49011c4.0416,-5.27252 9.43137,-7.55804 14.7815,-9.76575c1.47119,1.38416 0.04037,3.55848 2.05557,4.66858c0.47745,-2.08978 0.93668,-4.09948 1.48532,-6.50067c53.48667,-9.91961 104.64719,12.85095 135.39505,57.75757c29.04556,42.42041 38.44992,98.49744 37.80591,148.97882c-0.35403,27.74725 -4.14633,55.38117 -10.48151,82.37805c-5.09024,21.69171 -10.5928,44.56794 -23.1968,63.30481c-9.87427,14.67884 -23.74283,26.03559 -40.13611,32.7143c-21.70999,8.84485 -45.50583,8.3341 -68.51578,9.87054c-57.07245,3.81091 -113.31184,11.28778 -169.83807,19.797c50.78764,7.34851 103.56463,-3.01422 154.18039,-7.55609c24.34561,-2.18451 48.40048,-3.14814 71.98877,-10.21967c23.17172,-6.94653 42.96902,-18.50409 62.22351,-32.83209c-0.39969,5.31909 -10.86838,11.78143 -14.91309,14.88171c-6.01855,4.61316 -12.50064,8.61853 -19.24057,12.08655c-13.12424,6.75299 -27.23959,11.40857 -41.53363,14.9621c-32.89523,8.17779 -66.87552,9.72229 -100.57144,11.69855c-71.00958,4.16461 -142.06143,7.4461 -213.107,10.93585c3.44256,3.26929 13.90995,1.87298 18.42783,2.15899c7.18493,0.45496 14.37195,0.87775 21.56064,1.26941c14.37326,0.78308 28.75332,1.43903 43.13835,1.96418c28.76779,1.05029 57.55458,1.57776 86.34163,1.55713c56.1221,-0.04029 114.3789,0.02587 169.17996,-13.5622c-30.57669,13.66333 -65.35028,16.35657 -98.25546,19.94012c-34.28849,3.7342 -68.88619,8.68451 -103.42734,8.77466c10.05139,5.31385 26.20105,4.2937 37.33484,4.74408c12.31334,0.49805 24.64932,0.29553 36.95267,-0.35962c24.32363,-1.29522 48.8995,-3.71429 72.79443,-8.51666c20.95932,-4.21234 41.49527,-10.24963 61.82919,-16.7984c19.14939,-6.16736 38.12665,-13.67279 58.24967,-15.98328c42.05856,-4.8291 81.62152,16.53656 120.98352,27.7854c84.17468,24.05542 175.5404,14.59595 261.68463,9.46692c-24.9317,-5.68213 -52.65625,-3.78912 -78.12201,-4.81494c-25.54071,-1.02887 -51.0802,-2.15466 -76.58832,-3.82507c-24.35797,-1.59509 -49.16315,-2.79352 -73.16614,-7.46301c-17.99768,-3.50141 -44.38781,-8.78156 -56.15832,-24.19989c27.46411,15.16558 59.52984,19.77203 90.28967,23.37066c31.77893,3.71778 63.87549,5.04053 95.85614,5.31336zm-276.55258,-765.292c3.28699,12.10105 2.83624,24.30439 -0.40274,38.25094c-7.34894,-13.82305 -0.81854,-26.00287 0.40274,-38.25094zm-197.39926,326.5387c-0.1344,-11.87836 -1.93155,-23.76788 1.81476,-35.3356c-3.66342,11.6929 3.23486,23.81552 -1.81476,35.3356zm7.97446,-6.88171c0.35238,-18.20316 2.46563,-35.24976 7.99923,-51.82013c-0.76532,15.57583 1.76978,30.81839 3.50193,46.14782c-3.77472,1.86164 -7.12604,3.51447 -11.50116,5.67231zm-152.26516,434.71002c35.07132,-1.51196 70.14255,-3.02393 105.21387,-4.53589c-34.96568,4.44708 -70.02942,5.99396 -105.21387,4.53589zm343.98531,-400.1225c-10.28037,9.32239 -26.46961,-10.51672 -32.42816,-16.90344c-22.31122,-23.91419 -53.20169,-37.20026 -74.28357,-62.29678c-11.59683,-13.80527 -20.11054,-30.18287 -22.19348,-48.25455c-2.1604,-18.74481 3.64792,-36.33823 8.45236,-54.20023c2.55017,13.75592 4.42401,27.52484 4.99844,41.49625c10.09952,-21.86847 3.54682,-47.4353 16.01975,-69.27405c13.1589,12.24964 9.63833,27.84595 9.16647,43.07333c11.61993,-16.70806 8.83524,-34.87896 -7.40445,-47.77276c4.83808,-8.47345 9.72177,-17.0267 14.95398,-26.19043c40.5867,56.87738 67.25037,125.73779 82.58514,193.61734c2.54834,11.28021 10.50556,37.29974 0.13352,46.70532zm138.22037,-296.06195c0.8244,6.22012 1.65387,12.47824 2.49591,18.83136c-4.97565,-4.90085 -7.34931,-10.43961 -8.80005,-21.06515c2.42407,0.85891 4.151,1.47082 6.30414,2.23379zm-21.80494,-102.88534c0,20.84107 0,41.68215 0,62.52323c-6.93505,-20.82041 -0.72363,-41.67981 0,-62.52323zm-3.63696,75.98172c4.12122,4.18817 4.20008,8.87295 5.43518,13.34831c-2.64142,1.25729 -4.08203,0.79416 -5.43518,-0.19097c0,-4.21135 0,-8.2668 0,-13.15734zm-56.77502,60.59613c0.28522,0.04977 0.57025,0.09954 0.85547,0.14929c0,3.49713 0,6.99423 0,10.49136c0.66314,0.46698 1.32623,0.93387 1.98938,1.40076c1.7279,-29.0567 15.98541,-46.79199 43.77234,-52.23155c2.5047,1.74816 1.09893,4.32814 2.23211,6.24546c2.21088,1.10636 7.06513,-3.04921 6.34394,4.32477c1.99401,-3.78839 -0.42176,-6.57171 0.73114,-9.40941c2.48938,-1.07838 4.96899,-0.54995 8.25646,0.41042c4.19849,16.33957 16.16511,28.14053 27.65674,40.89505c4.05005,-1.88083 5.99726,4.56348 11.7486,4.48285c-3.77954,-3.27051 -6.77679,-5.86417 -9.67487,-8.37207c0,-8.98575 0,-17.50696 0,-26.86014c8.01429,3.90109 15.75763,7.67029 23.78376,11.57724c0.68908,27.00027 6.76513,52.90012 17.47461,78.32687c-16.78901,4.4758 -29.33191,14.83652 -40.37873,26.82624c-3.25482,0.39114 -2.65118,-3.26233 -5.39276,-3.94379c0.00873,6.45544 1.59161,13.31805 -5.76446,19.50201c2.08526,-34.34164 -14.70331,-62.59619 -24.50806,-92.86627c-1.94128,0.19977 -0.42481,2.27588 -1.87158,2.73895c-0.39435,-0.63049 -0.83234,-1.33068 -1.52759,-2.44226c-1.35901,7.98395 -2.57825,15.14685 -4.09589,24.06278c-4.67578,-22.50925 -7.33996,-43.31433 -5.07324,-66.42258c-9.31702,12.64209 -15.53613,27.03958 -18.12695,42.53427c-1.4281,8.54178 -1.28205,16.71479 -1.55329,25.27887c-0.26776,8.45533 -3.70159,15.62088 -5.69274,23.73902c-8.11695,33.09347 0.78918,70.99127 11.98767,102.43734c1.80297,-35.9516 -6.2403,-71.46228 -4.61536,-107.46869c4.12738,21.95896 12.01074,42.64026 21.46625,62.90195c-5.69953,-30.95617 -7.3714,-62.1774 -7.62372,-93.56509c10.41736,28.60184 4.84436,60.88418 21,88.22479c-4.65637,-20.86932 -2.58655,-41.93665 -2.44434,-63.02307c7.71991,18.33414 13.62311,40.81436 14.54322,60.71893c0.96148,20.79968 -4.70136,40.82657 -12.05371,60.06519c-6.89435,18.04025 -14.54297,35.90829 -24.93677,52.2464c-5.14905,8.09387 -10.86157,16.12054 -17.71674,22.86688c-4.69,4.6156 -16.51343,16.56933 -23.81537,13.73321c-3.17077,-7.99408 -0.70874,-20.01788 -0.90466,-28.53009c-0.26532,-11.53125 -0.97534,-23.04647 -1.91657,-34.54101c-1.82922,-22.33988 -4.86456,-44.57553 -6.52819,-66.92615c-3.11652,-41.86868 -2.1164,-89.68274 12.3739,-129.57873zm-13.46527,242.49462c0.63366,-30.47961 -6.83954,-60.69644 -21.51364,-87.42532c18.37979,17.28574 28.37979,59.39697 21.51364,87.42532zm24.55035,21.29749c-15.01941,30.84528 -24.92212,61.36768 -27.04004,95.86908c-2.16064,35.19971 0.59693,70.18658 0.59693,105.35211c-10.43851,-66.69714 -21.96781,-145.96167 26.44311,-201.22119z"/>
   <path id="svg_3" d="m913.36839,445.07431c-3.26538,-2.7088 -4.77631,-5.35275 -4.76093,-9.55707c0.03473,-9.56027 -0.66632,-19.34521 -4.87787,-27.8822c-4.03338,-8.17572 -4.19732,-16.30252 -3.64666,-24.8125c0.62964,-9.73117 1.35913,-19.4559 2.04474,-29.1835c1.97906,-28.08154 -0.32221,-55.51377 -11.60346,-81.76084c-2.63,-6.11901 -7.49335,-11.0502 -8.89789,-17.74008c-8.25323,-39.311 -29.9143,-70.41064 -59.33203,-96.73572c-1.24176,-1.11123 -2.21869,-2.96643 -4.57562,-2.68595c2.30218,4.7015 4.61475,9.06652 6.6145,13.57046c8.3316,18.76582 10.15308,38.9473 12.72876,58.97174c1.94745,15.1404 2.89227,30.47377 8.29529,45.07808c2.23096,-22.49895 5.99103,-44.85026 3.70911,-67.61861c11.85742,34.52276 15.87371,70.21392 17.11889,106.38915c3.44452,-19.24298 4.38587,-38.63745 4.51154,-58.3835c2.71753,28.1245 6.21856,56.30153 11.54089,86.09148c0.75214,-22.10944 2.44141,-42.31061 5.22327,-62.44645c4.18847,39.34885 -3.37244,79.59433 10.41253,118.1923c-4.76818,-3.31601 -8.32562,-7.42871 -14.14325,-10.5228c7.32105,16.91864 12.95716,33.34396 16.02112,50.95749c-8.01263,-2.05878 -15.41681,-3.96112 -23.02716,-5.91644c0.38874,-20.28339 -1.44275,-39.78367 -13.14435,-56.93894c-11.39856,-16.71112 -26.91571,-28.18786 -45.43689,-35.88351c1.56,2.13339 3.51178,3.80975 5.38666,5.56811c14.9516,14.02176 27.08478,30.0503 33.59918,49.67999c6.23639,18.7923 11.4748,37.49283 12.02265,57.91724c0.64636,24.10043 5.55408,48.0892 8.66473,72.11981c1.66138,12.83515 3.71558,25.58905 9.01312,37.70563c-0.10046,-23.12946 4.99109,-45.75964 5.14802,-68.83426c12.92529,39.37198 16.8255,79.81272 15.29541,120.97733c5.01263,-19.78028 5.58605,-39.8797 6.11376,-59.98603c1.94654,25.6587 3.89307,51.31726 5.8396,76.97596c1.76252,-5.30085 2.12848,-10.63947 2.74286,-15.94947c3.31922,-28.68274 4.91004,-57.3153 -0.6831,-85.95605c-5.73957,-29.3905 -17.06629,-55.98203 -39.45893,-76.52841c-6.16589,-5.65754 -7.0119,-10.94886 -4.6676,-19.38062c30.26294,21.42719 55.62396,46.15173 73.52014,78.12232c-4.28802,-26.06369 -17.26617,-46.98572 -37.31103,-63.61414z"/>
   <path id="svg_4" d="m820.18107,701.39215c1.17438,-33.97333 -3.40887,-67.67761 -2.77215,-101.55548c2.16693,5.46704 3.04589,11.28363 6.72882,18.28143c-0.83167,-13.62475 -1.63599,-27.2511 -2.47651,-40.8753c-0.78442,-12.71558 -0.45983,-26.01264 -5.16809,-38.04499c-7.90795,-20.20922 -25.68536,-30.89047 -45.89672,-36.2055c16.89746,10.77246 28.75634,27.01587 34.51098,46.15167c6.88672,22.89978 0.5763,44.12262 -10.15954,64.6745c-0.91211,-0.25604 -1.98969,-0.55859 -3.03565,-0.85229c-40.83649,53.91363 -16.27038,125.92718 -6.13171,185.58856c5.32324,-47.69153 -3.42029,-95.33667 1.40161,-142.90051c4.77576,27.15252 13.41394,53.51306 14.79321,81.21087c5.46131,-23.23742 0.86719,-46.78479 -1.37872,-70.10748c-1.16162,-12.06207 -2.03241,-24.16095 -2.24426,-36.28034c-0.17987,-10.28417 -0.57239,-20.31304 4.93762,-29.42907c-1.59015,36.00165 8.97369,67.93207 16.89111,100.34393z"/>
   <path id="svg_5" d="m115.82084,588.29871c-0.02849,0.03192 -0.05107,0.05719 -0.05107,0.05719c0.07687,-0.06849 0.14163,-0.146 0.21737,-0.21534c0.00079,-0.01092 0.00296,-0.02136 0.00375,-0.03228l0.00008,-0.00006c0,-0.00013 -0.00008,-0.00013 -0.00008,-0.00019c0,-0.00042 0.00017,-0.00079 0.00017,-0.00122l-0.00043,0.00049c-0.04882,-0.10907 -0.08342,-0.22015 -0.12926,-0.32959c-0.03111,0.19232 -0.05996,0.38617 -0.0916,0.57819l0.05107,-0.05719z"/>
   <path id="svg_6" d="m159.14065,405.1647c-4.01256,10.8176 -9.19264,16.89817 -16.34628,25.81314c-13.36331,16.65378 -22.76801,36.4701 -27.55224,57.25946c-2.46859,10.72712 -3.72537,21.70786 -4.04271,32.70368c-0.29362,10.17151 2.68936,22.46826 -0.73219,32.16308c-7.25274,20.54993 -23.17615,40.55707 -22.66115,63.46924c6.41944,-17.70776 13.97304,-34.78888 25.09479,-51.07446c2.94629,7.88147 0.11139,15.47565 2.9605,22.27887c2.22308,-13.7334 3.11024,-28.35645 9.01616,-41.13544c5.67958,-12.28912 16.55572,-23.31134 24.60986,-34.23376c4.87897,-29.40158 -1.77597,-56.54077 3.42487,-83.25745c4.50985,31.24005 12.68976,62.4075 0.87295,93.75263c10.5195,-22.58008 12.9094,-46.73786 12.48346,-71.34345c-0.44528,-25.7258 3.14336,-49.2605 8.67417,-74.27356c-6.44934,8.53516 -12.07123,17.81967 -15.80219,27.87802zm-32.52969,121.40549c3.74395,-20.42703 7.4879,-40.85403 11.23184,-61.28094c0.39699,-0.01114 0.79398,-0.02231 1.19098,-0.03345c2.69702,14.57614 5.39406,29.15222 8.23219,44.49072c-6.6606,5.3186 -13.94986,10.46643 -20.65501,16.82367z"/>
   <path id="svg_7" d="m236.61735,521.07922c2.48846,-24.84057 12.11993,-47.30911 25.95624,-67.90469c-39.25845,16.33472 -57.63817,62.25961 -59.1097,101.93985c-0.42218,11.38165 0.04392,22.87329 1.56618,34.16248c1.61858,12.00415 5.68369,23.48907 7.23122,35.46716c3.03328,23.47864 -8.33879,43.08478 -16.64315,64.22925c18.21238,-18.11695 26.81185,-40.73664 32.80397,-65.7519c-6.46659,2.19336 -7.90179,8.29596 -13.00143,11.97358c1.27525,-35.3678 2.50789,-69.55408 3.74054,-103.7403c4.14311,22.28778 9.40749,44.24902 8.57933,66.9812c6.77905,-9.41882 7.06396,-26.57147 7.53731,-37.7102c0.56198,-13.22663 0.01726,-26.44751 1.33949,-39.64643z"/>
   <path id="svg_8" d="m429.45954,956.13373c-38.40066,11.89862 -76.4432,25.52368 -118.17706,29.92798c4.93024,2.49224 8.99988,1.88018 12.86957,1.95202c31.64505,0.58637 62.32556,-6.35309 93.08295,-12.38116c31.14383,-6.10376 62.3219,-10.67481 94.20123,-7.6817c23.94601,2.24847 47.29043,7.83093 70.86832,12.14325c13.53454,2.47546 27.10693,4.90222 40.99969,4.48864c-28.97015,-7.49286 -57.34991,-16.68676 -85.48993,-26.56543c-35.99646,-12.63659 -71.78097,-13.21637 -108.35477,-1.8836z"/>
   <path id="svg_9" d="m294.44847,213.09238c0.71957,4.94137 1.35788,9.32504 1.99621,13.70861c0.43823,-0.05552 0.87644,-0.11112 1.31476,-0.16664c0.41495,-3.48518 0.8299,-6.97035 1.30035,-10.92181c11.62751,3.31148 21.37491,10.00354 32.08954,14.80067c-7.67019,-10.98361 -18.77478,-17.29507 -31.31979,-22.62324c4.67853,-24.44008 6.48376,-49.05699 11.2518,-73.32024c-2.20609,14.04251 0.91461,27.92961 0.67432,41.94127c8.20361,-18.25561 7.23452,-39.74216 14.53946,-58.56411c6.759,-17.41551 18.73828,-31.45663 36.00512,-39.08413c-23.46847,5.65953 -43.67672,19.08699 -55.03195,40.76362c-14.46704,27.61665 -14.13107,56.85603 -12.72403,87.07644c-10.33761,-1.04324 -19.91193,-2.00945 -30.15225,-3.04286c1.84158,-29.34519 1.92352,-58.63138 20.75958,-85.41403c-31.96701,23.24639 -40.13576,54.07751 -35.5831,89.19293c-5.04953,2.01225 -9.45585,2.87456 -13.45289,6.1768c5.2451,0.40039 8.82275,-3.76843 13.59007,-2.80467c0.80681,3.56171 0.59187,7.07982 0.28004,10.34459c-1.13565,2.55409 -4.72575,2.5655 -5.26507,6.29463c9.86732,-1.48479 18.30693,-6.47836 28.91273,-6.71803c-6.96557,-4.8557 -12.43536,-2.56151 -20.15429,-0.83104c0.61566,-4.05631 1.13119,-7.45337 1.68019,-11.07059c13.66972,-1.3374 26.67195,-0.54576 39.2892,4.26183zm-34.85865,-43.59941c-0.93301,11.34434 1.91767,22.3874 2.55957,33.64947c-1.4078,1.54814 -3.2319,1.76386 -5.9725,1.98314c1.85675,-12.18166 0.28952,-24.08502 3.41293,-35.63261z"/>
   <path id="svg_10" d="m777.30619,164.22659c-0.00341,-0.00618 -0.00708,-0.01211 -0.01049,-0.01829c-0.0788,-0.06938 -0.14722,-0.14713 -0.22669,-0.2159l0.23718,0.23419z"/>
   <path id="svg_11" d="m800.1342,142.69908c-6.7699,-6.20051 -14.44696,-11.33389 -22.59247,-15.54681c-8.46338,-4.37731 -18.02643,-6.79012 -25.99054,-12.0592c-9.30371,-6.15519 -17.72833,-12.70833 -27.88397,-17.56185c-7.4505,-3.56065 -22.98438,-12.61446 -31.34259,-10.20914c1.8598,3.34886 8.32086,5.44426 11.53936,7.28263c3.85352,2.20103 7.64295,4.52007 11.35236,6.95633c7.86212,5.1637 15.37128,10.86202 22.44513,17.06183c14.91498,13.07221 30.03912,28.06384 39.63422,45.58543c7.2713,6.40027 11.4967,15.25606 17.98223,22.36342c-7.51867,-22.3046 -17.28888,-43.36069 -32.51367,-61.63931c16.46387,9.41473 25.8078,26.09448 32.25849,43.38143c3.4599,9.27205 6.13879,18.9811 7.8634,28.73171c1.45691,8.23691 1.40173,16.78024 4.93683,24.52803c1.66894,-17.27564 2.0155,-33.06726 1.37121,-50.36051c7.41523,28.86933 7.71906,58.72692 12.659,87.93067c8.98523,-41.02973 12.03436,-85.52988 -21.71899,-116.44466z"/>
   <path id="svg_12" d="m110.86474,252.98549c1.20126,21.74254 7.28176,42.69466 8.81788,64.32039c7.49677,-19.96228 5.92292,-41.19766 8.45602,-62.0282c2.49081,-20.48348 8.03775,-40.66478 19.65767,-57.948c-24.86889,14.25525 -45.16716,35.44609 -54.69693,62.80362c-12.41644,35.64401 -3.33274,73.54685 1.30246,109.81873c8.23376,-38.79129 8.78432,-78.33823 16.4629,-116.96654z"/>
   <path id="svg_13" d="m742.40916,317.47366c-4.70441,-31.36721 -21.39252,-53.31091 -52.52954,-62.79098c-4.05634,-1.235 -8.24457,-2.77809 -14.94537,-1.19988c20.77783,6.33126 26.05316,21.84301 29.07531,38.83052c2.2085,12.41477 3.59064,24.94071 4.4383,37.52039c0.78894,11.70944 4.12866,23.39761 9.00109,29.80399c-3.16174,-21.36036 3.15082,-41.53489 2.08155,-62.18421c6.17224,32.24564 15.06537,63.58286 27.27759,94.04349c-0.57019,-24.75314 -0.72663,-49.53827 -4.39893,-74.02332z"/>
   <path id="svg_14" d="m771.533,584.39911c-1.20703,22.67499 -2.0426,45.24536 -0.73657,68.10919c26.2774,-63.69342 -5.75385,-148.33215 -60.24561,-155.61191c30.3822,19.78379 25.38288,64.66867 28.37134,96.17044c6.49951,-19.37841 11.30609,-38.77148 10.09241,-59.20935c15.02929,30.48297 15.02075,62.78681 12.66876,95.54267c5.24023,-14.55097 8.13452,-29.61316 9.84967,-45.00104z"/>
   <path id="svg_15" d="m209.95071,503.57278c-11.04044,7.11478 -19.89179,22.78605 -26.03365,34.11496c-6.95413,12.82721 -11.88156,26.6568 -14.42398,41.03138c-3.01062,17.02136 -2.28364,34.18438 -0.39299,51.28619c1.71244,15.48907 2.22727,32.94397 7.0577,47.85162c4.11364,-42.23205 5.8667,-82.68365 11.86099,-122.74438c-0.0217,26.89398 3.69932,53.49219 5.7059,80.45825c8.21416,-19.96997 6.28899,-45.76227 6.6797,-66.92157c0.40178,-21.75934 -0.83879,-45.21533 9.54633,-65.07645z"/>
   <path id="svg_16" d="m799.19224,272.05801c-33.22101,-40.46058 -82.77112,-60.58595 -134.78339,-53.0211c-18.58795,-27.58945 -22.52276,-62.27658 -43.96563,-88.16693c11.11841,30.29903 13.19439,64.16289 36.47668,89.58922c-6.13751,2.17061 -12.22925,4.41374 -18.30511,6.75038c58.80224,-3.16087 111.72943,12.90338 160.57745,44.84843z"/>
   <path id="svg_17" d="m103.35132,648.1026c1.27727,23.26019 7.14519,45.77319 11.82684,68.49036c2.86132,-34.6955 1.19508,-69.51007 3.50679,-104.20459c1.54117,19.12402 6.88817,37.51104 9.33786,56.4375c1.01117,-2.9903 1.55572,-5.98743 2.03769,-8.99463c2.72789,-17.0199 0.97291,-34.17023 1.41009,-51.25592c0.52397,-20.48169 7.21063,-38.53571 20.10208,-54.39313c0.99375,-1.22241 3.02579,-2.19849 2.24225,-4.55493c-9.09721,4.57556 -17.28834,12.01233 -25.41299,21.75494c-4.47544,5.36658 -7.19897,11.98541 -12.41479,16.75836c-0.26312,3.62983 -1.90566,6.82782 -3.3642,10.03644c-7.22198,15.88764 -10.22257,32.60913 -9.27162,49.9256z"/>
   <path id="svg_18" d="m418.52299,81.62611c-28.90262,3.27775 -55.13846,12.2621 -72.57959,37.04087c-21.49762,30.54184 -15.88123,65.7845 -13.7869,100.78253c6.10743,-17.39111 7.37546,-37.45041 10.52256,-55.58426c2.23181,-12.86006 3.18039,-28.7243 11.53,-39.46605c-6.62427,19.25868 -4.8414,38.85291 -5.8722,59.1769c4.41251,-3.32238 5.16318,-10.16828 6.62564,-15.07941c2.25596,-7.57564 4.41279,-15.18076 6.6995,-22.74725c2.94427,-9.74209 6.2576,-19.35682 11.16855,-28.30883c9.8851,-18.01951 25.62442,-30.83635 45.69244,-35.8145z"/>
   <path id="svg_19" d="m63.82975,428.24133c5.58554,-36.09695 8.05911,-72.29626 8.60792,-108.6885c3.8976,21.53616 7.99627,42.9617 8.9894,65.11715c10.47009,-39.87149 -1.60671,-82.19955 3.87285,-122.77371c-36.69581,48.6037 -26.20847,110.02564 -21.47017,166.34506z"/>
   <path id="svg_20" d="m179.28614,205.22423c0.28919,18.08322 5.73937,35.55494 5.70826,53.64503c4.62065,-10.12764 6.09025,-20.83723 6.44088,-31.70962c0.76854,-23.83513 2.49814,-47.39931 16.96894,-68.06302c-2.74262,-0.45923 -3.91782,1.30298 -5.33715,2.31346c-15.511,11.04286 -26.6846,25.58914 -34.17981,42.99045c-15.47769,35.93416 -6.97018,71.36586 2.22187,106.7791c0.9329,-35.47391 2.89477,-70.83571 8.17701,-105.9554z"/>
   <path id="svg_21" d="m647.5742,84.72458c38.57812,18.10169 46.48462,54.67784 55.02484,92.48515c1.49017,-15.02057 0.58557,-28.41969 -2.11249,-41.78944c6.09058,18.48324 9.65821,37.40411 12.73926,56.73121c-12.07428,1.72019 -23.71619,0.80315 -34.25989,6.15467c11.62219,3.26571 23.42194,1.11168 34.49793,1.65439c1.97979,1.24719 0.97998,3.69261 3.00287,4.20674c1.03808,-1.26541 -0.00916,-3.45206 1.11706,-3.97299c32.00586,-4.49497 58.1181,5.8457 80.38361,27.68122c-12.00617,-29.02908 -52.77185,-34.52197 -79.73737,-35.66337c5.33087,-54.94541 -17.72882,-91.21929 -70.65582,-107.48758z"/>
   <path id="svg_22" d="m809.79039,476.60196c-3.33161,-15.86624 -18.98426,-28.87882 -28.93244,-40.95554c-5.4834,-6.65677 -10.92767,-13.40539 -15.7948,-20.53378c-5.13196,-7.5162 -4.91174,-11.66592 -3.02209,-20.39761c3.71386,-17.16138 4.72729,-34.96378 1.34979,-52.26816c-2.88086,-14.75964 -8.9162,-34.05606 -21.12811,-43.88999c15.77179,42.90903 9.25366,86.74256 9.48462,131.89951c1.53613,-5.01492 2.54016,-8.29266 3.97192,-12.9671c11.57428,23.64819 28.6322,48.96542 54.07111,59.11267z"/>
   <path id="svg_23" d="m313.73149,91.54346c-64.91602,3.04226 -98.69612,55.21096 -105.76558,111.30587c24.39328,-47.06245 56.31053,-86.3249 105.76558,-111.30587z"/>
   <path id="svg_24" d="m764.56394,289.36771c7.18433,14.23086 7.48328,30.06372 9.64936,45.48214c1.70215,12.11646 1.2655,24.68317 7.80652,35.6218c-2.00641,-15.50107 2.71576,-30.37573 2.46704,-45.55856c9.60315,29.44967 23.62225,57.04568 31.86773,86.76632c4.6529,-48.75457 -22.34765,-111.66076 -51.79065,-122.3117z"/>
   <path id="svg_25" d="m290.14036,573.33655c2.7504,12.65649 5.63522,25.09497 6.75787,37.86816c9.20957,-28.41101 -2.31921,-61.27051 24.7692,-82.10065c-22.39264,4.67817 -38.31821,28.50361 -42.59781,49.64802c-5.38046,26.58374 2.66156,53.86682 8.41678,79.68457c0.88464,-28.3667 1.76935,-56.7334 2.65396,-85.1001z"/>
   <path id="svg_26" d="m672.24351,182.64972c3.49353,-54.09966 -49.44971,-111.20512 -99.67957,-107.63435c50.44806,17.20764 77.69233,61.85815 99.67957,107.63435z"/>
   <path id="svg_27" d="m818.223,357.60321c15.31031,29.17969 17.59314,60.901 20.51129,92.47723c3.08319,-14.77768 4.7829,-29.52282 2.8844,-44.5224c5.14313,23.57508 3.37592,47.62128 5.72925,72.74851c16.15082,-58.38858 1.75397,-94.68042 -29.12494,-120.70334z"/>
   <path id="svg_28" d="m187.21974,125.99685c31.85711,-20.15482 63.89837,-40.19668 104.0025,-37.61818c-0.60346,-0.3515 -1.17084,-0.91357 -1.81561,-1.02417c-28.3118,-4.85613 -55.17577,-1.73152 -80.47844,13.04623c-26.55368,15.50846 -46.61995,38.71774 -71.5067,58.06114c4.58569,-1.03777 7.22101,-3.09184 9.90697,-4.9406c13.30893,-9.16022 26.25013,-18.89419 39.89128,-27.52442z"/>
   <path id="svg_29" d="m391.43016,71.49341c13.73877,3.03693 27.54309,5.57769 41.63473,6.27528c-15.9396,-4.74553 -31.1174,-11.48928 -46.76776,-16.92064c-35.00064,-12.1467 -67.66846,-8.02293 -97.8609,14.0982c33.96042,-13.71053 68.39828,-11.10022 102.99393,-3.45284z"/>
   <path id="svg_30" d="m159.85603,728.77789c-4.08742,-44.1853 -6.09383,-88.30102 -1.50989,-132.51617c-23.0991,44.47772 -15.50645,88.60388 1.50989,132.51617z"/>
   <path id="svg_31" d="m271.64387,473.6691c8.20081,-20.56839 21.57947,-36.7504 43.03201,-44.93158c2.09131,-0.79749 4.56556,-0.91202 6.26432,-2.96826c-31.54752,-1.86994 -54.22437,15.01822 -58.31928,45.92218c-1.99875,15.08349 -6.27966,28.97583 -11.54951,42.93466c-3.95285,10.47027 -6.93706,21.24817 -2.96582,34.24646c4.76863,-27.07214 13.98017,-51.23099 23.53828,-75.20346z"/>
   <path id="svg_32" d="m359.76948,45.16458c43.81564,3.64118 79.357,24.16092 114.53961,45.5781c-21.52874,-35.85895 -68.82257,-55.37482 -114.53961,-45.5781z"/>
   <path id="svg_33" d="m533.55259,58.39845c20.42139,-0.08942 39.78791,-0.17788 58.95166,2.98883c19.05573,3.14885 37.3916,9.34822 57.52094,14.32602c-33.33679,-28.92885 -85.45673,-36.27171 -116.4726,-17.31485z"/>
   <path id="svg_34" d="m875.59703,731.65948c-10.65253,-40.30096 -16.79157,-81.42724 -21.46485,-123.94805c-1.44183,2.28302 -2.03961,3.22961 -2.63745,4.1762l0.1557,-0.23455c0,0.00012 0,0.00012 0,0.00018c-0.00049,0.00073 -0.1557,0.23437 -0.16675,0.25305c-0.93133,-3.64014 1.69202,-7.94379 2.41999,-11.45819c0.95324,-4.60266 0.96582,-8.30402 -0.6745,-12.74152c-2.95209,-7.98584 -8.99585,-15.60333 -14.20148,-22.22625c-1.08643,4.03033 3.87128,10.29767 5.02649,14.307c1.48975,5.17041 1.86182,10.43909 1.13074,15.76789c-1.8559,13.52801 -5.49115,23.44854 -1.96161,37.33514c3.04217,-7.66656 5.73462,-14.45166 8.427,-21.23675c-10.2981,43.69036 1.92572,82.83502 23.94672,120.00585z"/>
   <path id="svg_35" d="m93.6326,435.79773c23.33591,-30.36954 47.48986,-60.23306 60.08323,-97.2475c-32.04336,24.98349 -43.59087,62.6449 -60.08323,97.2475z"/>
   <path id="svg_36" d="m814.86998,525.53308c24.98864,25.83502 44.40991,54.58655 61.60937,84.94531c-4.49121,-45.91284 -28.57379,-79.18274 -61.60937,-84.94531z"/>
   <path id="svg_37" d="m736.56797,91.32391c16.91986,7.45443 34.06385,14.43724 50.04181,23.8619c15.93335,9.39824 31.78717,18.93315 47.79218,28.20747c7.52997,4.36336 15.26568,8.44206 24.3587,8.80646c-16.61352,-6.3662 -28.62469,-19.26583 -42.51453,-29.45964c-25.60888,-18.79422 -53.16613,-32.81956 -85.84857,-35.18148c1.50727,2.65572 4.08234,2.84537 6.17041,3.76529z"/>
   <path id="svg_38" d="m50.64224,588.25757c23.88595,-27.20392 39.74173,-57.96778 41.61714,-94.9151c-20.00595,28.97082 -28.49935,62.94952 -41.61714,94.9151z"/>
   <path id="svg_39" d="m672.80113,44.52843c-25.60755,-20.59957 -81.90906,-22.55447 -101.2414,-2.62347c34.48731,1.37767 67.39856,-6.83343 101.2414,2.62347z"/>
   <path id="svg_40" d="m195.02984,433.11499c26.73497,-24.46475 56.49599,-43.04553 90.66002,-54.56473c-31.42464,-7.45938 -85.4543,25.22006 -90.66002,54.56473z"/>
   <path id="svg_41" d="m779.91667,89.38688c-32.57117,-29.98893 -91.62207,-37.02561 -122.52979,-14.6912c42.66162,-7.96245 82.43244,-3.04234 122.52979,14.6912z"/>
   <path id="svg_42" d="m750.07621,466.06458c-9.92419,-24.66919 -67.31256,-54.5253 -89.25061,-45.87885c31.84876,11.84305 59.73029,30.53546 89.25061,45.87885z"/>
   <path id="svg_43" d="m493.8892,82.21032c29.92377,-28.99448 60.16705,-54.31858 98.85071,-70.1083c-30.15869,-2.8438 -83.59393,35.11951 -98.85071,70.1083z"/>
   <path id="svg_44" d="m911.41178,404.6871c23.29194,26.55448 38.42585,56.27698 45.33808,91.40625c7.10821,-41.13083 -15.9054,-81.95483 -45.33808,-91.40625z"/>
   <path id="svg_45" d="m237.4,654.78345c2.7298,16.15844 8.5219,31.3941 16.08448,45.89734c-1.40094,-7.7179 -3.67517,-15.23212 -4.77385,-22.91443c-4.40198,-30.77875 -5.57753,-61.49915 3.33839,-91.82697c0.52678,-1.79187 2.11223,-4.26251 -1.59233,-4.46972c-0.07765,1.56292 -0.46889,2.96777 -1.24188,4.44549c-11.33554,21.67108 -15.90694,44.64581 -11.81481,68.86829z"/>
   <path id="svg_46" d="m730.75016,460.19867c-23.63134,-10.04327 -48.95538,-12.74912 -74.03906,-16.15665c-8.21216,-1.11551 -16.84528,-0.94632 -24.12457,5.35614c18.24408,-3.40176 34.44751,1.96207 49.78235,11.29511c0.43805,-0.6391 0.87622,-1.27829 1.31433,-1.91742c-2.55359,-1.53656 -5.10712,-3.07309 -7.66071,-4.60965c28.04712,3.87405 54.07636,12.43405 80.30463,20.5607c-7.30188,-7.13544 -16.56043,-10.69626 -25.57697,-14.52823z"/>
   <path id="svg_47" d="m687.91679,247.64616c30.61316,14.94921 57.70361,34.06145 72.98224,68.56243c-0.18421,-36.61347 -39.14923,-71.99469 -72.98224,-68.56243z"/>
   <path id="svg_48" d="m774.2227,380.48529c6.62426,27.92572 24.20935,49.95532 39.43426,73.25455c-4.91449,-28.84546 -16.33117,-54.19327 -39.43426,-73.25455z"/>
   <path id="svg_49" d="m447.61167,101.40616c-4.76617,-5.43563 -9.87594,-5.0457 -14.63934,-3.69993c-29.14404,8.23385 -46.64523,29.63699 -61.10355,54.38404c11.01471,-10.62375 22.32227,-20.86636 34.50776,-30.20116c12.28668,-9.41236 27.30453,-13.39093 41.23513,-20.48295z"/>
   <path id="svg_50" d="m495.84156,155.33429c1.30204,3.2895 1.59845,7.23059 5.13767,9.86287c1.58014,-40.1002 -17.03031,-64.57462 -50.39215,-63.84983c8.32684,4.5198 14.88931,8.1358 20.63522,13.03316c12.81058,10.91859 18.673,25.93201 24.61926,40.9538z"/>
   <path id="svg_51" d="m231.49705,664.15448c-14.25299,25.30048 -17.57153,54.00739 -25.00224,81.55872c15.49905,-24.90503 28.28792,-50.77082 25.00224,-81.55872z"/>
   <path id="svg_52" d="m222.31538,130.7252c-46.14627,14.55324 -63.71309,34.19568 -67.43297,67.96846c16.41156,-29.15658 39.62224,-49.88995 67.43297,-67.96846z"/>
   <path id="svg_53" d="m445.92234,248.44948c-6.23248,23.66578 -11.47107,46.36955 -14.70794,70.61381c21.20669,-28.14053 26.6697,-50.38159 14.70794,-70.61381z"/>
   <path id="svg_54" d="m426.28019,981.67145c49.61103,-4.06537 99.00952,-0.08869 148.39673,4.31769c-49.23462,-10.18317 -98.5788,-16.21698 -148.39673,-4.31769z"/>
   <path id="svg_55" d="m349.57768,323.14365c-2.17703,0.16436 -3.2283,1.88806 -4.35864,3.32165c-15.70621,19.92151 -23.42185,44.57407 -38.80271,64.69455c19.4642,-11.16818 41.94919,-47.0397 43.16135,-68.0162z"/>
   <path id="svg_56" d="m889.58232,266.61801c14.91906,-31.96316 4.03003,-63.52875 -29.59662,-84.6373c19.78198,24.11455 35.28155,49.63658 29.59662,84.6373z"/>
   <path id="svg_57" d="m268.93605,365.89328c19.60485,-22.17587 31.64599,-48.50348 41.79614,-75.86911c-22.26425,20.71619 -29.34992,49.76382 -41.79614,75.86911z"/>
   <path id="svg_58" d="m248.06158,440.67206c17.89583,-23.7219 42.75023,-32.65622 69.77501,-37.90265c-29.12714,-8.45609 -66.33769,11.58438 -69.77501,37.90265z"/>
   <path id="svg_59" d="m816.60173,298.11334c-7.81635,-3.34616 -26.05549,-9.28006 -29.42798,2.97583c1.51819,7.67877 21.83947,5.02646 28.06225,6.30249c11.3711,2.33167 22.15668,6.92328 31.92536,13.16712c-8.24152,-9.78531 -18.80823,-17.41465 -30.55963,-22.44544z"/>
   <path id="svg_60" d="m777.30278,164.22572c0.00341,0.00087 -0.23377,-0.23332 -0.23377,-0.23332c-0.00854,0.03836 -0.00903,0.07356 -0.01611,0.1113c0.08655,0.03721 0.16144,0.08699 0.24988,0.12202z"/>
   <path id="svg_61" d="m768.7075,156.16217c-8.86951,-9.34247 -19.12457,-16.25494 -31.98785,-18.5114c-4.90296,-0.86006 -10.03394,-1.82347 -16.49244,1.88265c20.71619,10.44201 41.55011,17.81268 59.57917,32.25619c-0.30774,-3.85873 -3.23633,-5.09512 -2.75348,-7.68591c-3.74951,-1.61089 -5.71338,-5.16928 -8.3454,-7.94153z"/>
   <path id="svg_62" d="m890.94615,687.71442c-12.58832,-22.32874 -14.20618,-46.75464 -22.59046,-69.8725c-3.97101,27.37445 3.21387,58.71326 22.59046,69.8725z"/>
   <path id="svg_63" d="m41.95013,331.68619c9.25984,-28.8403 22.02779,-54.62927 36.2304,-81.27693c-23.54325,21.87944 -33.93115,49.79634 -36.2304,81.27693z"/>
   <path id="svg_64" d="m156.77926,159.0405c-8.65986,7.58967 -16.36572,15.65828 -26.23408,21.10942c-10.04757,5.55015 -21.20401,7.47377 -33.39977,10.28567c31.752,5.52741 49.98033,-4.25198 59.63385,-31.39509z"/>
   <path id="svg_65" d="m906.80918,256.18375c2.83326,25.7257 9.99476,50.46203 16.77893,75.28463c-1.75103,-25.97296 -1.89599,-52.31311 -16.77893,-75.28463z"/>
   <path id="svg_66" d="m918.96879,491.54984c-0.26672,22.26693 10.72553,41.6434 12.78327,63.68405c6.07708,-15.57898 -0.3639,-56.20063 -12.78327,-63.68405z"/>
   <path id="svg_67" d="m263.88545,689.98907c-4.31168,-19.6015 -4.50611,-39.1358 -1.78232,-58.84753c0.64694,-4.68176 -0.16831,-9.6308 -2.91867,-14.41016c-6.37395,25.33173 -8.21059,49.83246 4.70099,73.25769z"/>
   <path id="svg_68" d="m822.05009,710.94312c0.82922,11.7962 2.44763,23.73687 0.84125,35.53369c-1.48157,10.88012 -5.65918,21.27813 -8.99872,31.6831c18.45935,-23.5625 21.60803,-48.29266 8.15747,-67.21679z"/>
   <path id="svg_69" d="m831.059,505.47598c-12.47742,-9.19229 -49.19745,-15.97848 -59.46509,-10.49673c18.79023,9.08029 39.74079,6.47119 59.46509,10.49673z"/>
   <path id="svg_70" d="m104.48252,495.20923c2.72822,-9.96509 5.43737,-19.93561 8.19018,-29.89401c2.82253,-10.21061 8.68296,-18.96723 15.232,-29.09977c-20.03933,10.95835 -26.31784,26.9426 -23.42218,58.99378z"/>
   <path id="svg_71" d="m52.30482,529.21484c11.07146,-25.01568 25.75326,-47.77591 42.94164,-69.03045c-23.33573,17.44949 -37.09498,40.82052 -42.94164,69.03045z"/>
   <path id="svg_72" d="m215.12478,487.70245c-17.32182,10.94455 -34.71345,20.09162 -53.52704,29.15949c17.73015,3.1449 42.38306,-10.55396 53.52704,-29.15949z"/>
   <path id="svg_73" d="m708.18699,422.87881c-4.63684,-29.50207 -23.28314,-45.74603 -43.6535,-38.92324c22.80658,7.33484 24.01642,8.40188 43.6535,38.92324z"/>
   <path id="svg_74" d="m758.47654,751.2226c-7.52386,-23.50135 -7.75213,-47.30921 -2.46789,-72.86255c-12.92151,19.39215 -11.47541,53.82043 2.46789,72.86255z"/>
   <path id="svg_75" d="m908.01646,225.65585c11.93231,17.62111 23.71417,35.23081 32.91907,54.43015c-4.63367,-22.00226 -13.14368,-41.66629 -32.91907,-54.43015z"/>
   <path id="svg_76" d="m368.19551,193.17009c-16.38105,12.15646 -19.13648,31.33287 -30.20462,45.05229c12.82434,-7.72529 27.44702,-29.44028 30.20462,-45.05229z"/>
   <path id="svg_77" d="m421.72447,281.65637c10.44778,-17.18753 11.39898,-36.96068 2.01111,-47.16896c-0.91584,16.10288 0.23001,31.66573 -2.01111,47.16896z"/>
   <path id="svg_78" d="m808.96366,480.4592c17.43262,7.68426 34.46033,13.84265 48.40284,28.97052c-5.21283,-16.80838 -29.65711,-30.93186 -48.40284,-28.97052z"/>
   <path id="svg_79" d="m722.6063,550.97131c-3.7735,21.26422 -9.89294,41.98737 -14.74939,63.00177c6.73426,-20.58136 20.04352,-39.64618 14.74939,-63.00177z"/>
   <path id="svg_80" d="m711.68534,215.37463c17.36408,1.80204 33.70673,5.01284 49.51892,11.16716c-15.14581,-12.76864 -38.86981,-18.2427 -49.51892,-11.16716z"/>
   <path id="svg_81" d="m863.18473,536.75854c-14.87787,-8.41125 -28.31054,-16.00549 -42.71991,-24.15185c11.48493,14.54456 27.5401,23.73627 42.71991,24.15185z"/>
   <path id="svg_82" d="m323.36198,324.42117c14.65994,-11.22033 28.57275,-23.58587 46.32693,-30.06311c-20.6827,1.98838 -34.3182,14.7789 -46.32693,30.06311z"/>
   <path id="svg_83" d="m288.21772,691.35992c-7.11441,-13.72412 -9.66372,-27.74981 -9.8757,-42.4729c-5.5524,20.1875 -1.65515,38.36414 9.8757,42.4729z"/>
   <path id="svg_84" d="m286.85557,255.07722c-8.05884,13.98717 -18.94903,21.79857 -32.056,26.81411c18.827,-0.3479 30.42105,-9.54074 32.056,-26.81411z"/>
   <path id="svg_85" d="m287.17942,152.22789c2.29291,-13.71298 6.2305,-26.82301 12.52079,-39.22193c-12.94269,10.30388 -16.3992,23.64722 -12.52079,39.22193z"/>
   <path id="svg_86" d="m271.59367,575.30981c-11.33249,8.87995 -12.97809,15.7005 -8.98828,35.34583c1.78259,-11.75995 5.51636,-22.89618 8.98828,-35.34583z"/>
   <path id="svg_87" d="m245.24827,716.7005c5.41376,12.91559 8.72488,25.7301 10.909,38.8476c2.68884,-21.11719 -1.0591,-35.06128 -10.909,-38.8476z"/>
   <path id="svg_88" d="m677.09074,275.05154c7.15863,12.72629 14.32623,25.44297 20.88824,38.39292c-2.79473,-15.14966 -7.7937,-28.99607 -20.88824,-38.39292z"/>
   <path id="svg_89" d="m936.67375,573.90106c1.87463,15.04968 7.98108,27.91016 1.05578,42.63452c10.67176,-9.53247 9.86646,-23.66388 -1.05578,-42.63452z"/>
   <path id="svg_90" d="m703.55851,568.55438c6.2171,-9.66974 12.03064,-19.45813 9.2649,-31.7699c-5.22168,9.96247 -5.40827,21.40589 -9.2649,31.7699z"/>
   <path id="svg_91" d="m161.666,549.4162c-3.36814,7.94464 -6.73627,15.8894 -10.10431,23.83404c6.23956,-6.68292 12.40503,-13.40264 10.10431,-23.83404z"/>
   <path id="svg_92" d="m702.99119,645.42389c-2.74133,-8.8421 -3.35626,-16.31384 -4.96521,-23.59033c-1.33594,7.85498 -1.38281,15.45678 4.96521,23.59033z"/>
   <path id="svg_93" d="m50.33937,401.0773c0.86834,-6.69067 1.73667,-13.38144 2.605,-20.07211c-4.22269,6.29785 -4.28962,13.2345 -2.605,20.07211z"/>
   <path id="svg_94" d="m798.53233,401.23853c-0.45105,-10.24888 -2.26843,-15.21152 -8.3208,-21.92258c2.77356,7.30755 5.54712,14.61511 8.3208,21.92258z"/>
   <path id="svg_95" d="m647.63664,345.21204c-21.22718,-20.90714 -35.67072,-45.18598 -53.32886,-69.70798c3.26202,30.49686 24.24127,58.38675 53.32886,69.70798z"/>
   <path id="svg_96" d="m539.43791,364.49731c1.91168,11.02552 3.54089,20.42203 5.1701,29.81855c1.36389,-9.9346 2.30396,-19.79392 -5.1701,-29.81855z"/>
  </g>
 </g>
</svg>